<svg width="254" height="254" viewBox="0 0 254 254" fill="none" xmlns="http://www.w3.org/2000/svg">
<g clip-path="url(#clip0_1_3697)">
<rect width="254" height="254" rx="24" fill="#2DAEB7"/>
<path d="M132 52V62C153.95 64.7 169.5 84.65 166.8 106.6C165.696 115.445 161.675 123.669 155.372 129.972C149.069 136.275 140.845 140.296 132 141.4V151.4C159.5 148.4 179.25 123.7 176.25 96.25C173.65 72.95 155.3 54.5 132 52ZM122 52C112.2 52.9 102.95 56.75 95.35 63L102.5 70.7C108.1 66.2 114.85 63.3 122 62.3V52ZM88.3 70.35C82.0284 77.9248 78.1785 87.2098 77.25 97H87.25C88.2 89.9 91 83.15 95.45 77.5L88.3 70.35ZM77.3 107C78.3 116.8 82.15 126.05 88.35 133.65L95.45 126.5C91.0346 120.848 88.2198 114.113 87.3 107H77.3ZM102.3 133.85L95.35 140.7C102.924 147.014 112.196 150.945 122 152V142C114.887 141.08 108.152 138.265 102.5 133.85H102.3Z" fill="white"/>
<path fill-rule="evenodd" clip-rule="evenodd" d="M129.625 99.375V84.5H124.375V99.375H109.5V104.625H124.375V119.5H129.625V104.625H144.5V99.375H129.625Z" fill="white"/>
<path d="M46.375 193.309H41.8164V191.469H46.375C47.2578 191.469 47.9727 191.328 48.5195 191.047C49.0664 190.766 49.4648 190.375 49.7148 189.875C49.9727 189.375 50.1016 188.805 50.1016 188.164C50.1016 187.578 49.9727 187.027 49.7148 186.512C49.4648 185.996 49.0664 185.582 48.5195 185.27C47.9727 184.949 47.2578 184.789 46.375 184.789H42.3438V200H40.082V182.938H46.375C47.6641 182.938 48.7539 183.16 49.6445 183.605C50.5352 184.051 51.2109 184.668 51.6719 185.457C52.1328 186.238 52.3633 187.133 52.3633 188.141C52.3633 189.234 52.1328 190.168 51.6719 190.941C51.2109 191.715 50.5352 192.305 49.6445 192.711C48.7539 193.109 47.6641 193.309 46.375 193.309ZM57.0625 189.312V200H54.8945V187.32H57.0039L57.0625 189.312ZM61.0234 187.25L61.0117 189.266C60.832 189.227 60.6602 189.203 60.4961 189.195C60.3398 189.18 60.1602 189.172 59.957 189.172C59.457 189.172 59.0156 189.25 58.6328 189.406C58.25 189.562 57.9258 189.781 57.6602 190.062C57.3945 190.344 57.1836 190.68 57.0273 191.07C56.8789 191.453 56.7812 191.875 56.7344 192.336L56.125 192.688C56.125 191.922 56.1992 191.203 56.3477 190.531C56.5039 189.859 56.7422 189.266 57.0625 188.75C57.3828 188.227 57.7891 187.82 58.2812 187.531C58.7812 187.234 59.375 187.086 60.0625 187.086C60.2188 187.086 60.3984 187.105 60.6016 187.145C60.8047 187.176 60.9453 187.211 61.0234 187.25ZM62.2188 193.801V193.531C62.2188 192.617 62.3516 191.77 62.6172 190.988C62.8828 190.199 63.2656 189.516 63.7656 188.938C64.2656 188.352 64.8711 187.898 65.582 187.578C66.293 187.25 67.0898 187.086 67.9727 187.086C68.8633 187.086 69.6641 187.25 70.375 187.578C71.0938 187.898 71.7031 188.352 72.2031 188.938C72.7109 189.516 73.0977 190.199 73.3633 190.988C73.6289 191.77 73.7617 192.617 73.7617 193.531V193.801C73.7617 194.715 73.6289 195.562 73.3633 196.344C73.0977 197.125 72.7109 197.809 72.2031 198.395C71.7031 198.973 71.0977 199.426 70.3867 199.754C69.6836 200.074 68.8867 200.234 67.9961 200.234C67.1055 200.234 66.3047 200.074 65.5938 199.754C64.8828 199.426 64.2734 198.973 63.7656 198.395C63.2656 197.809 62.8828 197.125 62.6172 196.344C62.3516 195.562 62.2188 194.715 62.2188 193.801ZM64.3867 193.531V193.801C64.3867 194.434 64.4609 195.031 64.6094 195.594C64.7578 196.148 64.9805 196.641 65.2773 197.07C65.582 197.5 65.9609 197.84 66.4141 198.09C66.8672 198.332 67.3945 198.453 67.9961 198.453C68.5898 198.453 69.1094 198.332 69.5547 198.09C70.0078 197.84 70.3828 197.5 70.6797 197.07C70.9766 196.641 71.1992 196.148 71.3477 195.594C71.5039 195.031 71.582 194.434 71.582 193.801V193.531C71.582 192.906 71.5039 192.316 71.3477 191.762C71.1992 191.199 70.9727 190.703 70.668 190.273C70.3711 189.836 69.9961 189.492 69.543 189.242C69.0977 188.992 68.5742 188.867 67.9727 188.867C67.3789 188.867 66.8555 188.992 66.4023 189.242C65.957 189.492 65.582 189.836 65.2773 190.273C64.9805 190.703 64.7578 191.199 64.6094 191.762C64.4609 192.316 64.3867 192.906 64.3867 193.531ZM84.6953 187.32H86.6641V199.73C86.6641 200.848 86.4375 201.801 85.9844 202.59C85.5312 203.379 84.8984 203.977 84.0859 204.383C83.2812 204.797 82.3516 205.004 81.2969 205.004C80.8594 205.004 80.3438 204.934 79.75 204.793C79.1641 204.66 78.5859 204.43 78.0156 204.102C77.4531 203.781 76.9805 203.348 76.5977 202.801L77.7344 201.512C78.2656 202.152 78.8203 202.598 79.3984 202.848C79.9844 203.098 80.5625 203.223 81.1328 203.223C81.8203 203.223 82.4141 203.094 82.9141 202.836C83.4141 202.578 83.8008 202.195 84.0742 201.688C84.3555 201.188 84.4961 200.57 84.4961 199.836V190.109L84.6953 187.32ZM75.9648 193.801V193.555C75.9648 192.586 76.0781 191.707 76.3047 190.918C76.5391 190.121 76.8711 189.438 77.3008 188.867C77.7383 188.297 78.2656 187.859 78.8828 187.555C79.5 187.242 80.1953 187.086 80.9688 187.086C81.7656 187.086 82.4609 187.227 83.0547 187.508C83.6562 187.781 84.1641 188.184 84.5781 188.715C85 189.238 85.332 189.871 85.5742 190.613C85.8164 191.355 85.9844 192.195 86.0781 193.133V194.211C85.9922 195.141 85.8242 195.977 85.5742 196.719C85.332 197.461 85 198.094 84.5781 198.617C84.1641 199.141 83.6562 199.543 83.0547 199.824C82.4531 200.098 81.75 200.234 80.9453 200.234C80.1875 200.234 79.5 200.074 78.8828 199.754C78.2734 199.434 77.75 198.984 77.3125 198.406C76.875 197.828 76.5391 197.148 76.3047 196.367C76.0781 195.578 75.9648 194.723 75.9648 193.801ZM78.1328 193.555V193.801C78.1328 194.434 78.1953 195.027 78.3203 195.582C78.4531 196.137 78.6523 196.625 78.918 197.047C79.1914 197.469 79.5391 197.801 79.9609 198.043C80.3828 198.277 80.8867 198.395 81.4727 198.395C82.1914 198.395 82.7852 198.242 83.2539 197.938C83.7227 197.633 84.0938 197.23 84.3672 196.73C84.6484 196.23 84.8672 195.688 85.0234 195.102V192.277C84.9375 191.848 84.8047 191.434 84.625 191.035C84.4531 190.629 84.2266 190.27 83.9453 189.957C83.6719 189.637 83.332 189.383 82.9258 189.195C82.5195 189.008 82.043 188.914 81.4961 188.914C80.9023 188.914 80.3906 189.039 79.9609 189.289C79.5391 189.531 79.1914 189.867 78.918 190.297C78.6523 190.719 78.4531 191.211 78.3203 191.773C78.1953 192.328 78.1328 192.922 78.1328 193.555ZM92.125 189.312V200H89.957V187.32H92.0664L92.125 189.312ZM96.0859 187.25L96.0742 189.266C95.8945 189.227 95.7227 189.203 95.5586 189.195C95.4023 189.18 95.2227 189.172 95.0195 189.172C94.5195 189.172 94.0781 189.25 93.6953 189.406C93.3125 189.562 92.9883 189.781 92.7227 190.062C92.457 190.344 92.2461 190.68 92.0898 191.07C91.9414 191.453 91.8438 191.875 91.7969 192.336L91.1875 192.688C91.1875 191.922 91.2617 191.203 91.4102 190.531C91.5664 189.859 91.8047 189.266 92.125 188.75C92.4453 188.227 92.8516 187.82 93.3438 187.531C93.8438 187.234 94.4375 187.086 95.125 187.086C95.2812 187.086 95.4609 187.105 95.6641 187.145C95.8672 187.176 96.0078 187.211 96.0859 187.25ZM103.117 200.234C102.234 200.234 101.434 200.086 100.715 199.789C100.004 199.484 99.3906 199.059 98.875 198.512C98.3672 197.965 97.9766 197.316 97.7031 196.566C97.4297 195.816 97.293 194.996 97.293 194.105V193.613C97.293 192.582 97.4453 191.664 97.75 190.859C98.0547 190.047 98.4688 189.359 98.9922 188.797C99.5156 188.234 100.109 187.809 100.773 187.52C101.438 187.23 102.125 187.086 102.836 187.086C103.742 187.086 104.523 187.242 105.18 187.555C105.844 187.867 106.387 188.305 106.809 188.867C107.23 189.422 107.543 190.078 107.746 190.836C107.949 191.586 108.051 192.406 108.051 193.297V194.27H98.582V192.5H105.883V192.336C105.852 191.773 105.734 191.227 105.531 190.695C105.336 190.164 105.023 189.727 104.594 189.383C104.164 189.039 103.578 188.867 102.836 188.867C102.344 188.867 101.891 188.973 101.477 189.184C101.062 189.387 100.707 189.691 100.41 190.098C100.113 190.504 99.8828 191 99.7188 191.586C99.5547 192.172 99.4727 192.848 99.4727 193.613V194.105C99.4727 194.707 99.5547 195.273 99.7188 195.805C99.8906 196.328 100.137 196.789 100.457 197.188C100.785 197.586 101.18 197.898 101.641 198.125C102.109 198.352 102.641 198.465 103.234 198.465C104 198.465 104.648 198.309 105.18 197.996C105.711 197.684 106.176 197.266 106.574 196.742L107.887 197.785C107.613 198.199 107.266 198.594 106.844 198.969C106.422 199.344 105.902 199.648 105.285 199.883C104.676 200.117 103.953 200.234 103.117 200.234ZM117.965 196.637C117.965 196.324 117.895 196.035 117.754 195.77C117.621 195.496 117.344 195.25 116.922 195.031C116.508 194.805 115.883 194.609 115.047 194.445C114.344 194.297 113.707 194.121 113.137 193.918C112.574 193.715 112.094 193.469 111.695 193.18C111.305 192.891 111.004 192.551 110.793 192.16C110.582 191.77 110.477 191.312 110.477 190.789C110.477 190.289 110.586 189.816 110.805 189.371C111.031 188.926 111.348 188.531 111.754 188.188C112.168 187.844 112.664 187.574 113.242 187.379C113.82 187.184 114.465 187.086 115.176 187.086C116.191 187.086 117.059 187.266 117.777 187.625C118.496 187.984 119.047 188.465 119.43 189.066C119.812 189.66 120.004 190.32 120.004 191.047H117.836C117.836 190.695 117.73 190.355 117.52 190.027C117.316 189.691 117.016 189.414 116.617 189.195C116.227 188.977 115.746 188.867 115.176 188.867C114.574 188.867 114.086 188.961 113.711 189.148C113.344 189.328 113.074 189.559 112.902 189.84C112.738 190.121 112.656 190.418 112.656 190.73C112.656 190.965 112.695 191.176 112.773 191.363C112.859 191.543 113.008 191.711 113.219 191.867C113.43 192.016 113.727 192.156 114.109 192.289C114.492 192.422 114.98 192.555 115.574 192.688C116.613 192.922 117.469 193.203 118.141 193.531C118.812 193.859 119.312 194.262 119.641 194.738C119.969 195.215 120.133 195.793 120.133 196.473C120.133 197.027 120.016 197.535 119.781 197.996C119.555 198.457 119.223 198.855 118.785 199.191C118.355 199.52 117.84 199.777 117.238 199.965C116.645 200.145 115.977 200.234 115.234 200.234C114.117 200.234 113.172 200.035 112.398 199.637C111.625 199.238 111.039 198.723 110.641 198.09C110.242 197.457 110.043 196.789 110.043 196.086H112.223C112.254 196.68 112.426 197.152 112.738 197.504C113.051 197.848 113.434 198.094 113.887 198.242C114.34 198.383 114.789 198.453 115.234 198.453C115.828 198.453 116.324 198.375 116.723 198.219C117.129 198.062 117.438 197.848 117.648 197.574C117.859 197.301 117.965 196.988 117.965 196.637ZM130.363 196.637C130.363 196.324 130.293 196.035 130.152 195.77C130.02 195.496 129.742 195.25 129.32 195.031C128.906 194.805 128.281 194.609 127.445 194.445C126.742 194.297 126.105 194.121 125.535 193.918C124.973 193.715 124.492 193.469 124.094 193.18C123.703 192.891 123.402 192.551 123.191 192.16C122.98 191.77 122.875 191.312 122.875 190.789C122.875 190.289 122.984 189.816 123.203 189.371C123.43 188.926 123.746 188.531 124.152 188.188C124.566 187.844 125.062 187.574 125.641 187.379C126.219 187.184 126.863 187.086 127.574 187.086C128.59 187.086 129.457 187.266 130.176 187.625C130.895 187.984 131.445 188.465 131.828 189.066C132.211 189.66 132.402 190.32 132.402 191.047H130.234C130.234 190.695 130.129 190.355 129.918 190.027C129.715 189.691 129.414 189.414 129.016 189.195C128.625 188.977 128.145 188.867 127.574 188.867C126.973 188.867 126.484 188.961 126.109 189.148C125.742 189.328 125.473 189.559 125.301 189.84C125.137 190.121 125.055 190.418 125.055 190.73C125.055 190.965 125.094 191.176 125.172 191.363C125.258 191.543 125.406 191.711 125.617 191.867C125.828 192.016 126.125 192.156 126.508 192.289C126.891 192.422 127.379 192.555 127.973 192.688C129.012 192.922 129.867 193.203 130.539 193.531C131.211 193.859 131.711 194.262 132.039 194.738C132.367 195.215 132.531 195.793 132.531 196.473C132.531 197.027 132.414 197.535 132.18 197.996C131.953 198.457 131.621 198.855 131.184 199.191C130.754 199.52 130.238 199.777 129.637 199.965C129.043 200.145 128.375 200.234 127.633 200.234C126.516 200.234 125.57 200.035 124.797 199.637C124.023 199.238 123.438 198.723 123.039 198.09C122.641 197.457 122.441 196.789 122.441 196.086H124.621C124.652 196.68 124.824 197.152 125.137 197.504C125.449 197.848 125.832 198.094 126.285 198.242C126.738 198.383 127.188 198.453 127.633 198.453C128.227 198.453 128.723 198.375 129.121 198.219C129.527 198.062 129.836 197.848 130.047 197.574C130.258 197.301 130.363 196.988 130.363 196.637ZM151.422 182.938H153.672V194.48C153.672 195.762 153.387 196.828 152.816 197.68C152.246 198.531 151.488 199.172 150.543 199.602C149.605 200.023 148.586 200.234 147.484 200.234C146.328 200.234 145.281 200.023 144.344 199.602C143.414 199.172 142.676 198.531 142.129 197.68C141.59 196.828 141.32 195.762 141.32 194.48V182.938H143.559V194.48C143.559 195.371 143.723 196.105 144.051 196.684C144.379 197.262 144.836 197.691 145.422 197.973C146.016 198.254 146.703 198.395 147.484 198.395C148.273 198.395 148.961 198.254 149.547 197.973C150.141 197.691 150.602 197.262 150.93 196.684C151.258 196.105 151.422 195.371 151.422 194.48V182.938ZM159.062 189.758V204.875H156.883V187.32H158.875L159.062 189.758ZM167.605 193.555V193.801C167.605 194.723 167.496 195.578 167.277 196.367C167.059 197.148 166.738 197.828 166.316 198.406C165.902 198.984 165.391 199.434 164.781 199.754C164.172 200.074 163.473 200.234 162.684 200.234C161.879 200.234 161.168 200.102 160.551 199.836C159.934 199.57 159.41 199.184 158.98 198.676C158.551 198.168 158.207 197.559 157.949 196.848C157.699 196.137 157.527 195.336 157.434 194.445V193.133C157.527 192.195 157.703 191.355 157.961 190.613C158.219 189.871 158.559 189.238 158.98 188.715C159.41 188.184 159.93 187.781 160.539 187.508C161.148 187.227 161.852 187.086 162.648 187.086C163.445 187.086 164.152 187.242 164.77 187.555C165.387 187.859 165.906 188.297 166.328 188.867C166.75 189.438 167.066 190.121 167.277 190.918C167.496 191.707 167.605 192.586 167.605 193.555ZM165.426 193.801V193.555C165.426 192.922 165.359 192.328 165.227 191.773C165.094 191.211 164.887 190.719 164.605 190.297C164.332 189.867 163.98 189.531 163.551 189.289C163.121 189.039 162.609 188.914 162.016 188.914C161.469 188.914 160.992 189.008 160.586 189.195C160.188 189.383 159.848 189.637 159.566 189.957C159.285 190.27 159.055 190.629 158.875 191.035C158.703 191.434 158.574 191.848 158.488 192.277V195.312C158.645 195.859 158.863 196.375 159.145 196.859C159.426 197.336 159.801 197.723 160.27 198.02C160.738 198.309 161.328 198.453 162.039 198.453C162.625 198.453 163.129 198.332 163.551 198.09C163.98 197.84 164.332 197.5 164.605 197.07C164.887 196.641 165.094 196.148 165.227 195.594C165.359 195.031 165.426 194.434 165.426 193.801ZM178.363 197.539V182H180.543V200H178.551L178.363 197.539ZM169.832 193.801V193.555C169.832 192.586 169.949 191.707 170.184 190.918C170.426 190.121 170.766 189.438 171.203 188.867C171.648 188.297 172.176 187.859 172.785 187.555C173.402 187.242 174.09 187.086 174.848 187.086C175.645 187.086 176.34 187.227 176.934 187.508C177.535 187.781 178.043 188.184 178.457 188.715C178.879 189.238 179.211 189.871 179.453 190.613C179.695 191.355 179.863 192.195 179.957 193.133V194.211C179.871 195.141 179.703 195.977 179.453 196.719C179.211 197.461 178.879 198.094 178.457 198.617C178.043 199.141 177.535 199.543 176.934 199.824C176.332 200.098 175.629 200.234 174.824 200.234C174.082 200.234 173.402 200.074 172.785 199.754C172.176 199.434 171.648 198.984 171.203 198.406C170.766 197.828 170.426 197.148 170.184 196.367C169.949 195.578 169.832 194.723 169.832 193.801ZM172.012 193.555V193.801C172.012 194.434 172.074 195.027 172.199 195.582C172.332 196.137 172.535 196.625 172.809 197.047C173.082 197.469 173.43 197.801 173.852 198.043C174.273 198.277 174.777 198.395 175.363 198.395C176.082 198.395 176.672 198.242 177.133 197.938C177.602 197.633 177.977 197.23 178.258 196.73C178.539 196.23 178.758 195.688 178.914 195.102V192.277C178.82 191.848 178.684 191.434 178.504 191.035C178.332 190.629 178.105 190.27 177.824 189.957C177.551 189.637 177.211 189.383 176.805 189.195C176.406 189.008 175.934 188.914 175.387 188.914C174.793 188.914 174.281 189.039 173.852 189.289C173.43 189.531 173.082 189.867 172.809 190.297C172.535 190.719 172.332 191.211 172.199 191.773C172.074 192.328 172.012 192.922 172.012 193.555ZM191.395 197.832V191.305C191.395 190.805 191.293 190.371 191.09 190.004C190.895 189.629 190.598 189.34 190.199 189.137C189.801 188.934 189.309 188.832 188.723 188.832C188.176 188.832 187.695 188.926 187.281 189.113C186.875 189.301 186.555 189.547 186.32 189.852C186.094 190.156 185.98 190.484 185.98 190.836H183.812C183.812 190.383 183.93 189.934 184.164 189.488C184.398 189.043 184.734 188.641 185.172 188.281C185.617 187.914 186.148 187.625 186.766 187.414C187.391 187.195 188.086 187.086 188.852 187.086C189.773 187.086 190.586 187.242 191.289 187.555C192 187.867 192.555 188.34 192.953 188.973C193.359 189.598 193.562 190.383 193.562 191.328V197.234C193.562 197.656 193.598 198.105 193.668 198.582C193.746 199.059 193.859 199.469 194.008 199.812V200H191.746C191.637 199.75 191.551 199.418 191.488 199.004C191.426 198.582 191.395 198.191 191.395 197.832ZM191.77 192.312L191.793 193.836H189.602C188.984 193.836 188.434 193.887 187.949 193.988C187.465 194.082 187.059 194.227 186.73 194.422C186.402 194.617 186.152 194.863 185.98 195.16C185.809 195.449 185.723 195.789 185.723 196.18C185.723 196.578 185.812 196.941 185.992 197.27C186.172 197.598 186.441 197.859 186.801 198.055C187.168 198.242 187.617 198.336 188.148 198.336C188.812 198.336 189.398 198.195 189.906 197.914C190.414 197.633 190.816 197.289 191.113 196.883C191.418 196.477 191.582 196.082 191.605 195.699L192.531 196.742C192.477 197.07 192.328 197.434 192.086 197.832C191.844 198.23 191.52 198.613 191.113 198.98C190.715 199.34 190.238 199.641 189.684 199.883C189.137 200.117 188.52 200.234 187.832 200.234C186.973 200.234 186.219 200.066 185.57 199.73C184.93 199.395 184.43 198.945 184.07 198.383C183.719 197.812 183.543 197.176 183.543 196.473C183.543 195.793 183.676 195.195 183.941 194.68C184.207 194.156 184.59 193.723 185.09 193.379C185.59 193.027 186.191 192.762 186.895 192.582C187.598 192.402 188.383 192.312 189.25 192.312H191.77ZM202.281 187.32V188.984H195.426V187.32H202.281ZM197.746 184.238H199.914V196.859C199.914 197.289 199.98 197.613 200.113 197.832C200.246 198.051 200.418 198.195 200.629 198.266C200.84 198.336 201.066 198.371 201.309 198.371C201.488 198.371 201.676 198.355 201.871 198.324C202.074 198.285 202.227 198.254 202.328 198.23L202.34 200C202.168 200.055 201.941 200.105 201.66 200.152C201.387 200.207 201.055 200.234 200.664 200.234C200.133 200.234 199.645 200.129 199.199 199.918C198.754 199.707 198.398 199.355 198.133 198.863C197.875 198.363 197.746 197.691 197.746 196.848V184.238ZM210.086 200.234C209.203 200.234 208.402 200.086 207.684 199.789C206.973 199.484 206.359 199.059 205.844 198.512C205.336 197.965 204.945 197.316 204.672 196.566C204.398 195.816 204.262 194.996 204.262 194.105V193.613C204.262 192.582 204.414 191.664 204.719 190.859C205.023 190.047 205.438 189.359 205.961 188.797C206.484 188.234 207.078 187.809 207.742 187.52C208.406 187.23 209.094 187.086 209.805 187.086C210.711 187.086 211.492 187.242 212.148 187.555C212.812 187.867 213.355 188.305 213.777 188.867C214.199 189.422 214.512 190.078 214.715 190.836C214.918 191.586 215.02 192.406 215.02 193.297V194.27H205.551V192.5H212.852V192.336C212.82 191.773 212.703 191.227 212.5 190.695C212.305 190.164 211.992 189.727 211.562 189.383C211.133 189.039 210.547 188.867 209.805 188.867C209.312 188.867 208.859 188.973 208.445 189.184C208.031 189.387 207.676 189.691 207.379 190.098C207.082 190.504 206.852 191 206.688 191.586C206.523 192.172 206.441 192.848 206.441 193.613V194.105C206.441 194.707 206.523 195.273 206.688 195.805C206.859 196.328 207.105 196.789 207.426 197.188C207.754 197.586 208.148 197.898 208.609 198.125C209.078 198.352 209.609 198.465 210.203 198.465C210.969 198.465 211.617 198.309 212.148 197.996C212.68 197.684 213.145 197.266 213.543 196.742L214.855 197.785C214.582 198.199 214.234 198.594 213.812 198.969C213.391 199.344 212.871 199.648 212.254 199.883C211.645 200.117 210.922 200.234 210.086 200.234Z" fill="white"/>
<path fill-rule="evenodd" clip-rule="evenodd" d="M230 34C235.523 34 240 29.5228 240 24C240 18.4772 235.523 14 230 14C224.477 14 220 18.4772 220 24C220 29.5228 224.477 34 230 34ZM230 36C236.627 36 242 30.6274 242 24C242 17.3726 236.627 12 230 12C223.373 12 218 17.3726 218 24C218 30.6274 223.373 36 230 36Z" fill="white"/>
<path fill-rule="evenodd" clip-rule="evenodd" d="M228.8 31.2002H231.2V21.6002H228.8V31.2002ZM228.8 19.2002H231.2V16.8002H228.8V19.2002Z" fill="white"/>
</g>
<defs>
<clipPath id="clip0_1_3697">
<rect width="254" height="254" rx="24" fill="white"/>
</clipPath>
</defs>
</svg>
