<svg width="254" height="254" viewBox="0 0 254 254" fill="none" xmlns="http://www.w3.org/2000/svg">
<g clip-path="url(#clip0_1_3695)">
<rect width="254" height="254" rx="24" fill="#2DAEB7"/>
<path d="M169.033 123.733C163.677 117.93 157.177 113.299 149.943 110.131C142.709 106.963 134.897 105.328 127 105.328C119.103 105.328 111.291 106.963 104.057 110.131C96.8227 113.299 90.3228 117.93 84.9667 123.733C84.1397 124.648 83.6771 125.834 83.6667 127.067V147.067C83.6842 148.381 84.2187 149.636 85.1545 150.559C86.0903 151.482 87.352 152 88.6667 152H165.333C166.659 152 167.931 151.473 168.869 150.536C169.807 149.598 170.333 148.326 170.333 147V127C170.307 125.79 169.845 124.631 169.033 123.733Z" fill="white"/>
<path d="M127 98.6667C139.887 98.6667 150.333 88.22 150.333 75.3333C150.333 62.4467 139.887 52 127 52C114.113 52 103.667 62.4467 103.667 75.3333C103.667 88.22 114.113 98.6667 127 98.6667Z" fill="white"/>
<path d="M105.297 182.938V200H103.07V182.938H105.297ZM110.781 182.938V184.789H97.5977V182.938H110.781ZM117.074 200.234C116.191 200.234 115.391 200.086 114.672 199.789C113.961 199.484 113.348 199.059 112.832 198.512C112.324 197.965 111.934 197.316 111.66 196.566C111.387 195.816 111.25 194.996 111.25 194.105V193.613C111.25 192.582 111.402 191.664 111.707 190.859C112.012 190.047 112.426 189.359 112.949 188.797C113.473 188.234 114.066 187.809 114.73 187.52C115.395 187.23 116.082 187.086 116.793 187.086C117.699 187.086 118.48 187.242 119.137 187.555C119.801 187.867 120.344 188.305 120.766 188.867C121.188 189.422 121.5 190.078 121.703 190.836C121.906 191.586 122.008 192.406 122.008 193.297V194.27H112.539V192.5H119.84V192.336C119.809 191.773 119.691 191.227 119.488 190.695C119.293 190.164 118.98 189.727 118.551 189.383C118.121 189.039 117.535 188.867 116.793 188.867C116.301 188.867 115.848 188.973 115.434 189.184C115.02 189.387 114.664 189.691 114.367 190.098C114.07 190.504 113.84 191 113.676 191.586C113.512 192.172 113.43 192.848 113.43 193.613V194.105C113.43 194.707 113.512 195.273 113.676 195.805C113.848 196.328 114.094 196.789 114.414 197.188C114.742 197.586 115.137 197.898 115.598 198.125C116.066 198.352 116.598 198.465 117.191 198.465C117.957 198.465 118.605 198.309 119.137 197.996C119.668 197.684 120.133 197.266 120.531 196.742L121.844 197.785C121.57 198.199 121.223 198.594 120.801 198.969C120.379 199.344 119.859 199.648 119.242 199.883C118.633 200.117 117.91 200.234 117.074 200.234ZM132.016 197.832V191.305C132.016 190.805 131.914 190.371 131.711 190.004C131.516 189.629 131.219 189.34 130.82 189.137C130.422 188.934 129.93 188.832 129.344 188.832C128.797 188.832 128.316 188.926 127.902 189.113C127.496 189.301 127.176 189.547 126.941 189.852C126.715 190.156 126.602 190.484 126.602 190.836H124.434C124.434 190.383 124.551 189.934 124.785 189.488C125.02 189.043 125.355 188.641 125.793 188.281C126.238 187.914 126.77 187.625 127.387 187.414C128.012 187.195 128.707 187.086 129.473 187.086C130.395 187.086 131.207 187.242 131.91 187.555C132.621 187.867 133.176 188.34 133.574 188.973C133.98 189.598 134.184 190.383 134.184 191.328V197.234C134.184 197.656 134.219 198.105 134.289 198.582C134.367 199.059 134.48 199.469 134.629 199.812V200H132.367C132.258 199.75 132.172 199.418 132.109 199.004C132.047 198.582 132.016 198.191 132.016 197.832ZM132.391 192.312L132.414 193.836H130.223C129.605 193.836 129.055 193.887 128.57 193.988C128.086 194.082 127.68 194.227 127.352 194.422C127.023 194.617 126.773 194.863 126.602 195.16C126.43 195.449 126.344 195.789 126.344 196.18C126.344 196.578 126.434 196.941 126.613 197.27C126.793 197.598 127.062 197.859 127.422 198.055C127.789 198.242 128.238 198.336 128.77 198.336C129.434 198.336 130.02 198.195 130.527 197.914C131.035 197.633 131.438 197.289 131.734 196.883C132.039 196.477 132.203 196.082 132.227 195.699L133.152 196.742C133.098 197.07 132.949 197.434 132.707 197.832C132.465 198.23 132.141 198.613 131.734 198.98C131.336 199.34 130.859 199.641 130.305 199.883C129.758 200.117 129.141 200.234 128.453 200.234C127.594 200.234 126.84 200.066 126.191 199.73C125.551 199.395 125.051 198.945 124.691 198.383C124.34 197.812 124.164 197.176 124.164 196.473C124.164 195.793 124.297 195.195 124.562 194.68C124.828 194.156 125.211 193.723 125.711 193.379C126.211 193.027 126.812 192.762 127.516 192.582C128.219 192.402 129.004 192.312 129.871 192.312H132.391ZM139.75 189.84V200H137.57V187.32H139.633L139.75 189.84ZM139.305 193.18L138.297 193.145C138.305 192.277 138.418 191.477 138.637 190.742C138.855 190 139.18 189.355 139.609 188.809C140.039 188.262 140.574 187.84 141.215 187.543C141.855 187.238 142.598 187.086 143.441 187.086C144.035 187.086 144.582 187.172 145.082 187.344C145.582 187.508 146.016 187.77 146.383 188.129C146.75 188.488 147.035 188.949 147.238 189.512C147.441 190.074 147.543 190.754 147.543 191.551V200H145.375V191.656C145.375 190.992 145.262 190.461 145.035 190.062C144.816 189.664 144.504 189.375 144.098 189.195C143.691 189.008 143.215 188.914 142.668 188.914C142.027 188.914 141.492 189.027 141.062 189.254C140.633 189.48 140.289 189.793 140.031 190.191C139.773 190.59 139.586 191.047 139.469 191.562C139.359 192.07 139.305 192.609 139.305 193.18ZM147.52 191.984L146.066 192.43C146.074 191.734 146.188 191.066 146.406 190.426C146.633 189.785 146.957 189.215 147.379 188.715C147.809 188.215 148.336 187.82 148.961 187.531C149.586 187.234 150.301 187.086 151.105 187.086C151.785 187.086 152.387 187.176 152.91 187.355C153.441 187.535 153.887 187.812 154.246 188.188C154.613 188.555 154.891 189.027 155.078 189.605C155.266 190.184 155.359 190.871 155.359 191.668V200H153.18V191.645C153.18 190.934 153.066 190.383 152.84 189.992C152.621 189.594 152.309 189.316 151.902 189.16C151.504 188.996 151.027 188.914 150.473 188.914C149.996 188.914 149.574 188.996 149.207 189.16C148.84 189.324 148.531 189.551 148.281 189.84C148.031 190.121 147.84 190.445 147.707 190.812C147.582 191.18 147.52 191.57 147.52 191.984Z" fill="white"/>
<path fill-rule="evenodd" clip-rule="evenodd" d="M230 34C235.523 34 240 29.5228 240 24C240 18.4772 235.523 14 230 14C224.477 14 220 18.4772 220 24C220 29.5228 224.477 34 230 34ZM230 36C236.627 36 242 30.6274 242 24C242 17.3726 236.627 12 230 12C223.373 12 218 17.3726 218 24C218 30.6274 223.373 36 230 36Z" fill="white"/>
<path fill-rule="evenodd" clip-rule="evenodd" d="M228.8 31.2002H231.2V21.6002H228.8V31.2002ZM228.8 19.2002H231.2V16.8002H228.8V19.2002Z" fill="white"/>
</g>
<defs>
<clipPath id="clip0_1_3695">
<rect width="254" height="254" rx="24" fill="white"/>
</clipPath>
</defs>
</svg>
