<svg width="254" height="254" viewBox="0 0 254 254" fill="none" xmlns="http://www.w3.org/2000/svg">
<g clip-path="url(#clip0_1_3704)">
<rect width="254" height="254" rx="24" fill="#2DAEB7"/>
<path d="M152 102V57C152 55.6739 151.473 54.4021 150.536 53.4645C149.598 52.5268 148.326 52 147 52H82C80.6739 52 79.4021 52.5268 78.4645 53.4645C77.5268 54.4021 77 55.6739 77 57V127L97 107H147C148.326 107 149.598 106.473 150.536 105.536C151.473 104.598 152 103.326 152 102ZM172 72H162V117H97V127C97 128.326 97.5268 129.598 98.4645 130.536C99.4022 131.473 100.674 132 102 132H157L177 152V77C177 75.6739 176.473 74.4022 175.536 73.4645C174.598 72.5268 173.326 72 172 72Z" fill="white"/>
<path d="M40.6094 182.938H46.2578C47.5391 182.938 48.6211 183.133 49.5039 183.523C50.3945 183.914 51.0703 184.492 51.5312 185.258C52 186.016 52.2344 186.949 52.2344 188.059C52.2344 188.84 52.0742 189.555 51.7539 190.203C51.4414 190.844 50.9883 191.391 50.3945 191.844C49.8086 192.289 49.1055 192.621 48.2852 192.84L47.6523 193.086H42.3438L42.3203 191.246H46.3281C47.1406 191.246 47.8164 191.105 48.3555 190.824C48.8945 190.535 49.3008 190.148 49.5742 189.664C49.8477 189.18 49.9844 188.645 49.9844 188.059C49.9844 187.402 49.8555 186.828 49.5977 186.336C49.3398 185.844 48.9336 185.465 48.3789 185.199C47.832 184.926 47.125 184.789 46.2578 184.789H42.8711V200H40.6094V182.938ZM50.582 200L46.4336 192.266L48.7891 192.254L52.9961 199.859V200H50.582ZM60.332 200.234C59.4492 200.234 58.6484 200.086 57.9297 199.789C57.2188 199.484 56.6055 199.059 56.0898 198.512C55.582 197.965 55.1914 197.316 54.918 196.566C54.6445 195.816 54.5078 194.996 54.5078 194.105V193.613C54.5078 192.582 54.6602 191.664 54.9648 190.859C55.2695 190.047 55.6836 189.359 56.207 188.797C56.7305 188.234 57.3242 187.809 57.9883 187.52C58.6523 187.23 59.3398 187.086 60.0508 187.086C60.957 187.086 61.7383 187.242 62.3945 187.555C63.0586 187.867 63.6016 188.305 64.0234 188.867C64.4453 189.422 64.7578 190.078 64.9609 190.836C65.1641 191.586 65.2656 192.406 65.2656 193.297V194.27H55.7969V192.5H63.0977V192.336C63.0664 191.773 62.9492 191.227 62.7461 190.695C62.5508 190.164 62.2383 189.727 61.8086 189.383C61.3789 189.039 60.793 188.867 60.0508 188.867C59.5586 188.867 59.1055 188.973 58.6914 189.184C58.2773 189.387 57.9219 189.691 57.625 190.098C57.3281 190.504 57.0977 191 56.9336 191.586C56.7695 192.172 56.6875 192.848 56.6875 193.613V194.105C56.6875 194.707 56.7695 195.273 56.9336 195.805C57.1055 196.328 57.3516 196.789 57.6719 197.188C58 197.586 58.3945 197.898 58.8555 198.125C59.3242 198.352 59.8555 198.465 60.4492 198.465C61.2148 198.465 61.8633 198.309 62.3945 197.996C62.9258 197.684 63.3906 197.266 63.7891 196.742L65.1016 197.785C64.8281 198.199 64.4805 198.594 64.0586 198.969C63.6367 199.344 63.1172 199.648 62.5 199.883C61.8906 200.117 61.168 200.234 60.332 200.234ZM70.1523 182V200H67.9727V182H70.1523ZM81.1094 197.832V191.305C81.1094 190.805 81.0078 190.371 80.8047 190.004C80.6094 189.629 80.3125 189.34 79.9141 189.137C79.5156 188.934 79.0234 188.832 78.4375 188.832C77.8906 188.832 77.4102 188.926 76.9961 189.113C76.5898 189.301 76.2695 189.547 76.0352 189.852C75.8086 190.156 75.6953 190.484 75.6953 190.836H73.5273C73.5273 190.383 73.6445 189.934 73.8789 189.488C74.1133 189.043 74.4492 188.641 74.8867 188.281C75.332 187.914 75.8633 187.625 76.4805 187.414C77.1055 187.195 77.8008 187.086 78.5664 187.086C79.4883 187.086 80.3008 187.242 81.0039 187.555C81.7148 187.867 82.2695 188.34 82.668 188.973C83.0742 189.598 83.2773 190.383 83.2773 191.328V197.234C83.2773 197.656 83.3125 198.105 83.3828 198.582C83.4609 199.059 83.5742 199.469 83.7227 199.812V200H81.4609C81.3516 199.75 81.2656 199.418 81.2031 199.004C81.1406 198.582 81.1094 198.191 81.1094 197.832ZM81.4844 192.312L81.5078 193.836H79.3164C78.6992 193.836 78.1484 193.887 77.6641 193.988C77.1797 194.082 76.7734 194.227 76.4453 194.422C76.1172 194.617 75.8672 194.863 75.6953 195.16C75.5234 195.449 75.4375 195.789 75.4375 196.18C75.4375 196.578 75.5273 196.941 75.707 197.27C75.8867 197.598 76.1562 197.859 76.5156 198.055C76.8828 198.242 77.332 198.336 77.8633 198.336C78.5273 198.336 79.1133 198.195 79.6211 197.914C80.1289 197.633 80.5312 197.289 80.8281 196.883C81.1328 196.477 81.2969 196.082 81.3203 195.699L82.2461 196.742C82.1914 197.07 82.043 197.434 81.8008 197.832C81.5586 198.23 81.2344 198.613 80.8281 198.98C80.4297 199.34 79.9531 199.641 79.3984 199.883C78.8516 200.117 78.2344 200.234 77.5469 200.234C76.6875 200.234 75.9336 200.066 75.2852 199.73C74.6445 199.395 74.1445 198.945 73.7852 198.383C73.4336 197.812 73.2578 197.176 73.2578 196.473C73.2578 195.793 73.3906 195.195 73.6562 194.68C73.9219 194.156 74.3047 193.723 74.8047 193.379C75.3047 193.027 75.9062 192.762 76.6094 192.582C77.3125 192.402 78.0977 192.312 78.9648 192.312H81.4844ZM91.9961 187.32V188.984H85.1406V187.32H91.9961ZM87.4609 184.238H89.6289V196.859C89.6289 197.289 89.6953 197.613 89.8281 197.832C89.9609 198.051 90.1328 198.195 90.3438 198.266C90.5547 198.336 90.7812 198.371 91.0234 198.371C91.2031 198.371 91.3906 198.355 91.5859 198.324C91.7891 198.285 91.9414 198.254 92.043 198.23L92.0547 200C91.8828 200.055 91.6562 200.105 91.375 200.152C91.1016 200.207 90.7695 200.234 90.3789 200.234C89.8477 200.234 89.3594 200.129 88.9141 199.918C88.4688 199.707 88.1133 199.355 87.8477 198.863C87.5898 198.363 87.4609 197.691 87.4609 196.848V184.238ZM99.8008 200.234C98.918 200.234 98.1172 200.086 97.3984 199.789C96.6875 199.484 96.0742 199.059 95.5586 198.512C95.0508 197.965 94.6602 197.316 94.3867 196.566C94.1133 195.816 93.9766 194.996 93.9766 194.105V193.613C93.9766 192.582 94.1289 191.664 94.4336 190.859C94.7383 190.047 95.1523 189.359 95.6758 188.797C96.1992 188.234 96.793 187.809 97.457 187.52C98.1211 187.23 98.8086 187.086 99.5195 187.086C100.426 187.086 101.207 187.242 101.863 187.555C102.527 187.867 103.07 188.305 103.492 188.867C103.914 189.422 104.227 190.078 104.43 190.836C104.633 191.586 104.734 192.406 104.734 193.297V194.27H95.2656V192.5H102.566V192.336C102.535 191.773 102.418 191.227 102.215 190.695C102.02 190.164 101.707 189.727 101.277 189.383C100.848 189.039 100.262 188.867 99.5195 188.867C99.0273 188.867 98.5742 188.973 98.1602 189.184C97.7461 189.387 97.3906 189.691 97.0938 190.098C96.7969 190.504 96.5664 191 96.4023 191.586C96.2383 192.172 96.1562 192.848 96.1562 193.613V194.105C96.1562 194.707 96.2383 195.273 96.4023 195.805C96.5742 196.328 96.8203 196.789 97.1406 197.188C97.4688 197.586 97.8633 197.898 98.3242 198.125C98.793 198.352 99.3242 198.465 99.918 198.465C100.684 198.465 101.332 198.309 101.863 197.996C102.395 197.684 102.859 197.266 103.258 196.742L104.57 197.785C104.297 198.199 103.949 198.594 103.527 198.969C103.105 199.344 102.586 199.648 101.969 199.883C101.359 200.117 100.637 200.234 99.8008 200.234ZM115.258 197.539V182H117.438V200H115.445L115.258 197.539ZM106.727 193.801V193.555C106.727 192.586 106.844 191.707 107.078 190.918C107.32 190.121 107.66 189.438 108.098 188.867C108.543 188.297 109.07 187.859 109.68 187.555C110.297 187.242 110.984 187.086 111.742 187.086C112.539 187.086 113.234 187.227 113.828 187.508C114.43 187.781 114.938 188.184 115.352 188.715C115.773 189.238 116.105 189.871 116.348 190.613C116.59 191.355 116.758 192.195 116.852 193.133V194.211C116.766 195.141 116.598 195.977 116.348 196.719C116.105 197.461 115.773 198.094 115.352 198.617C114.938 199.141 114.43 199.543 113.828 199.824C113.227 200.098 112.523 200.234 111.719 200.234C110.977 200.234 110.297 200.074 109.68 199.754C109.07 199.434 108.543 198.984 108.098 198.406C107.66 197.828 107.32 197.148 107.078 196.367C106.844 195.578 106.727 194.723 106.727 193.801ZM108.906 193.555V193.801C108.906 194.434 108.969 195.027 109.094 195.582C109.227 196.137 109.43 196.625 109.703 197.047C109.977 197.469 110.324 197.801 110.746 198.043C111.168 198.277 111.672 198.395 112.258 198.395C112.977 198.395 113.566 198.242 114.027 197.938C114.496 197.633 114.871 197.23 115.152 196.73C115.434 196.23 115.652 195.688 115.809 195.102V192.277C115.715 191.848 115.578 191.434 115.398 191.035C115.227 190.629 115 190.27 114.719 189.957C114.445 189.637 114.105 189.383 113.699 189.195C113.301 189.008 112.828 188.914 112.281 188.914C111.688 188.914 111.176 189.039 110.746 189.289C110.324 189.531 109.977 189.867 109.703 190.297C109.43 190.719 109.227 191.211 109.094 191.773C108.969 192.328 108.906 192.922 108.906 193.555ZM129.52 182.938V200H127.258V182.938H129.52ZM135.473 190.027V200H133.305V187.32H135.355L135.473 190.027ZM134.957 193.18L134.055 193.145C134.062 192.277 134.191 191.477 134.441 190.742C134.691 190 135.043 189.355 135.496 188.809C135.949 188.262 136.488 187.84 137.113 187.543C137.746 187.238 138.445 187.086 139.211 187.086C139.836 187.086 140.398 187.172 140.898 187.344C141.398 187.508 141.824 187.773 142.176 188.141C142.535 188.508 142.809 188.984 142.996 189.57C143.184 190.148 143.277 190.855 143.277 191.691V200H141.098V191.668C141.098 191.004 141 190.473 140.805 190.074C140.609 189.668 140.324 189.375 139.949 189.195C139.574 189.008 139.113 188.914 138.566 188.914C138.027 188.914 137.535 189.027 137.09 189.254C136.652 189.48 136.273 189.793 135.953 190.191C135.641 190.59 135.395 191.047 135.215 191.562C135.043 192.07 134.957 192.609 134.957 193.18ZM148.926 187.32V200H146.746V187.32H148.926ZM146.582 183.957C146.582 183.605 146.688 183.309 146.898 183.066C147.117 182.824 147.438 182.703 147.859 182.703C148.273 182.703 148.59 182.824 148.809 183.066C149.035 183.309 149.148 183.605 149.148 183.957C149.148 184.293 149.035 184.582 148.809 184.824C148.59 185.059 148.273 185.176 147.859 185.176C147.438 185.176 147.117 185.059 146.898 184.824C146.688 184.582 146.582 184.293 146.582 183.957ZM157.715 187.32V188.984H150.859V187.32H157.715ZM153.18 184.238H155.348V196.859C155.348 197.289 155.414 197.613 155.547 197.832C155.68 198.051 155.852 198.195 156.062 198.266C156.273 198.336 156.5 198.371 156.742 198.371C156.922 198.371 157.109 198.355 157.305 198.324C157.508 198.285 157.66 198.254 157.762 198.23L157.773 200C157.602 200.055 157.375 200.105 157.094 200.152C156.82 200.207 156.488 200.234 156.098 200.234C155.566 200.234 155.078 200.129 154.633 199.918C154.188 199.707 153.832 199.355 153.566 198.863C153.309 198.363 153.18 197.691 153.18 196.848V184.238ZM162.613 187.32V200H160.434V187.32H162.613ZM160.27 183.957C160.27 183.605 160.375 183.309 160.586 183.066C160.805 182.824 161.125 182.703 161.547 182.703C161.961 182.703 162.277 182.824 162.496 183.066C162.723 183.309 162.836 183.605 162.836 183.957C162.836 184.293 162.723 184.582 162.496 184.824C162.277 185.059 161.961 185.176 161.547 185.176C161.125 185.176 160.805 185.059 160.586 184.824C160.375 184.582 160.27 184.293 160.27 183.957ZM173.57 197.832V191.305C173.57 190.805 173.469 190.371 173.266 190.004C173.07 189.629 172.773 189.34 172.375 189.137C171.977 188.934 171.484 188.832 170.898 188.832C170.352 188.832 169.871 188.926 169.457 189.113C169.051 189.301 168.73 189.547 168.496 189.852C168.27 190.156 168.156 190.484 168.156 190.836H165.988C165.988 190.383 166.105 189.934 166.34 189.488C166.574 189.043 166.91 188.641 167.348 188.281C167.793 187.914 168.324 187.625 168.941 187.414C169.566 187.195 170.262 187.086 171.027 187.086C171.949 187.086 172.762 187.242 173.465 187.555C174.176 187.867 174.73 188.34 175.129 188.973C175.535 189.598 175.738 190.383 175.738 191.328V197.234C175.738 197.656 175.773 198.105 175.844 198.582C175.922 199.059 176.035 199.469 176.184 199.812V200H173.922C173.812 199.75 173.727 199.418 173.664 199.004C173.602 198.582 173.57 198.191 173.57 197.832ZM173.945 192.312L173.969 193.836H171.777C171.16 193.836 170.609 193.887 170.125 193.988C169.641 194.082 169.234 194.227 168.906 194.422C168.578 194.617 168.328 194.863 168.156 195.16C167.984 195.449 167.898 195.789 167.898 196.18C167.898 196.578 167.988 196.941 168.168 197.27C168.348 197.598 168.617 197.859 168.977 198.055C169.344 198.242 169.793 198.336 170.324 198.336C170.988 198.336 171.574 198.195 172.082 197.914C172.59 197.633 172.992 197.289 173.289 196.883C173.594 196.477 173.758 196.082 173.781 195.699L174.707 196.742C174.652 197.07 174.504 197.434 174.262 197.832C174.02 198.23 173.695 198.613 173.289 198.98C172.891 199.34 172.414 199.641 171.859 199.883C171.312 200.117 170.695 200.234 170.008 200.234C169.148 200.234 168.395 200.066 167.746 199.73C167.105 199.395 166.605 198.945 166.246 198.383C165.895 197.812 165.719 197.176 165.719 196.473C165.719 195.793 165.852 195.195 166.117 194.68C166.383 194.156 166.766 193.723 167.266 193.379C167.766 193.027 168.367 192.762 169.07 192.582C169.773 192.402 170.559 192.312 171.426 192.312H173.945ZM184.457 187.32V188.984H177.602V187.32H184.457ZM179.922 184.238H182.09V196.859C182.09 197.289 182.156 197.613 182.289 197.832C182.422 198.051 182.594 198.195 182.805 198.266C183.016 198.336 183.242 198.371 183.484 198.371C183.664 198.371 183.852 198.355 184.047 198.324C184.25 198.285 184.402 198.254 184.504 198.23L184.516 200C184.344 200.055 184.117 200.105 183.836 200.152C183.562 200.207 183.23 200.234 182.84 200.234C182.309 200.234 181.82 200.129 181.375 199.918C180.93 199.707 180.574 199.355 180.309 198.863C180.051 198.363 179.922 197.691 179.922 196.848V184.238ZM189.355 187.32V200H187.176V187.32H189.355ZM187.012 183.957C187.012 183.605 187.117 183.309 187.328 183.066C187.547 182.824 187.867 182.703 188.289 182.703C188.703 182.703 189.02 182.824 189.238 183.066C189.465 183.309 189.578 183.605 189.578 183.957C189.578 184.293 189.465 184.582 189.238 184.824C189.02 185.059 188.703 185.176 188.289 185.176C187.867 185.176 187.547 185.059 187.328 184.824C187.117 184.582 187.012 184.293 187.012 183.957ZM196.691 198.043L200.16 187.32H202.375L197.816 200H196.363L196.691 198.043ZM193.797 187.32L197.371 198.102L197.617 200H196.164L191.57 187.32H193.797ZM209.559 200.234C208.676 200.234 207.875 200.086 207.156 199.789C206.445 199.484 205.832 199.059 205.316 198.512C204.809 197.965 204.418 197.316 204.145 196.566C203.871 195.816 203.734 194.996 203.734 194.105V193.613C203.734 192.582 203.887 191.664 204.191 190.859C204.496 190.047 204.91 189.359 205.434 188.797C205.957 188.234 206.551 187.809 207.215 187.52C207.879 187.23 208.566 187.086 209.277 187.086C210.184 187.086 210.965 187.242 211.621 187.555C212.285 187.867 212.828 188.305 213.25 188.867C213.672 189.422 213.984 190.078 214.188 190.836C214.391 191.586 214.492 192.406 214.492 193.297V194.27H205.023V192.5H212.324V192.336C212.293 191.773 212.176 191.227 211.973 190.695C211.777 190.164 211.465 189.727 211.035 189.383C210.605 189.039 210.02 188.867 209.277 188.867C208.785 188.867 208.332 188.973 207.918 189.184C207.504 189.387 207.148 189.691 206.852 190.098C206.555 190.504 206.324 191 206.16 191.586C205.996 192.172 205.914 192.848 205.914 193.613V194.105C205.914 194.707 205.996 195.273 206.16 195.805C206.332 196.328 206.578 196.789 206.898 197.188C207.227 197.586 207.621 197.898 208.082 198.125C208.551 198.352 209.082 198.465 209.676 198.465C210.441 198.465 211.09 198.309 211.621 197.996C212.152 197.684 212.617 197.266 213.016 196.742L214.328 197.785C214.055 198.199 213.707 198.594 213.285 198.969C212.863 199.344 212.344 199.648 211.727 199.883C211.117 200.117 210.395 200.234 209.559 200.234Z" fill="white"/>
<path fill-rule="evenodd" clip-rule="evenodd" d="M230 34C235.523 34 240 29.5228 240 24C240 18.4772 235.523 14 230 14C224.477 14 220 18.4772 220 24C220 29.5228 224.477 34 230 34ZM230 36C236.627 36 242 30.6274 242 24C242 17.3726 236.627 12 230 12C223.373 12 218 17.3726 218 24C218 30.6274 223.373 36 230 36Z" fill="white"/>
<path fill-rule="evenodd" clip-rule="evenodd" d="M228.8 31.2002H231.2V21.6002H228.8V31.2002ZM228.8 19.2002H231.2V16.8002H228.8V19.2002Z" fill="white"/>
</g>
<defs>
<clipPath id="clip0_1_3704">
<rect width="254" height="254" rx="24" fill="white"/>
</clipPath>
</defs>
</svg>
