<svg width="254" height="254" viewBox="0 0 254 254" fill="none" xmlns="http://www.w3.org/2000/svg">
<g clip-path="url(#clip0_1_3699)">
<rect width="254" height="254" rx="24" fill="#2DAEB7"/>
<path d="M152 102V57C152 55.6739 151.473 54.4021 150.536 53.4645C149.598 52.5268 148.326 52 147 52H82C80.6739 52 79.4021 52.5268 78.4645 53.4645C77.5268 54.4021 77 55.6739 77 57V127L97 107H147C148.326 107 149.598 106.473 150.536 105.536C151.473 104.598 152 103.326 152 102ZM172 72H162V117H97V127C97 128.326 97.5268 129.598 98.4645 130.536C99.4022 131.473 100.674 132 102 132H157L177 152V77C177 75.6739 176.473 74.4022 175.536 73.4645C174.598 72.5268 173.326 72 172 72Z" fill="white"/>
<path d="M93.6484 182.938V200H91.375L82.7852 186.84V200H80.5234V182.938H82.7852L91.4102 196.133V182.938H93.6484ZM104.805 197.832V191.305C104.805 190.805 104.703 190.371 104.5 190.004C104.305 189.629 104.008 189.34 103.609 189.137C103.211 188.934 102.719 188.832 102.133 188.832C101.586 188.832 101.105 188.926 100.691 189.113C100.285 189.301 99.9648 189.547 99.7305 189.852C99.5039 190.156 99.3906 190.484 99.3906 190.836H97.2227C97.2227 190.383 97.3398 189.934 97.5742 189.488C97.8086 189.043 98.1445 188.641 98.582 188.281C99.0273 187.914 99.5586 187.625 100.176 187.414C100.801 187.195 101.496 187.086 102.262 187.086C103.184 187.086 103.996 187.242 104.699 187.555C105.41 187.867 105.965 188.34 106.363 188.973C106.77 189.598 106.973 190.383 106.973 191.328V197.234C106.973 197.656 107.008 198.105 107.078 198.582C107.156 199.059 107.27 199.469 107.418 199.812V200H105.156C105.047 199.75 104.961 199.418 104.898 199.004C104.836 198.582 104.805 198.191 104.805 197.832ZM105.18 192.312L105.203 193.836H103.012C102.395 193.836 101.844 193.887 101.359 193.988C100.875 194.082 100.469 194.227 100.141 194.422C99.8125 194.617 99.5625 194.863 99.3906 195.16C99.2188 195.449 99.1328 195.789 99.1328 196.18C99.1328 196.578 99.2227 196.941 99.4023 197.27C99.582 197.598 99.8516 197.859 100.211 198.055C100.578 198.242 101.027 198.336 101.559 198.336C102.223 198.336 102.809 198.195 103.316 197.914C103.824 197.633 104.227 197.289 104.523 196.883C104.828 196.477 104.992 196.082 105.016 195.699L105.941 196.742C105.887 197.07 105.738 197.434 105.496 197.832C105.254 198.23 104.93 198.613 104.523 198.98C104.125 199.34 103.648 199.641 103.094 199.883C102.547 200.117 101.93 200.234 101.242 200.234C100.383 200.234 99.6289 200.066 98.9805 199.73C98.3398 199.395 97.8398 198.945 97.4805 198.383C97.1289 197.812 96.9531 197.176 96.9531 196.473C96.9531 195.793 97.0859 195.195 97.3516 194.68C97.6172 194.156 98 193.723 98.5 193.379C99 193.027 99.6016 192.762 100.305 192.582C101.008 192.402 101.793 192.312 102.66 192.312H105.18ZM112.551 189.312V200H110.383V187.32H112.492L112.551 189.312ZM116.512 187.25L116.5 189.266C116.32 189.227 116.148 189.203 115.984 189.195C115.828 189.18 115.648 189.172 115.445 189.172C114.945 189.172 114.504 189.25 114.121 189.406C113.738 189.562 113.414 189.781 113.148 190.062C112.883 190.344 112.672 190.68 112.516 191.07C112.367 191.453 112.27 191.875 112.223 192.336L111.613 192.688C111.613 191.922 111.688 191.203 111.836 190.531C111.992 189.859 112.23 189.266 112.551 188.75C112.871 188.227 113.277 187.82 113.77 187.531C114.27 187.234 114.863 187.086 115.551 187.086C115.707 187.086 115.887 187.105 116.09 187.145C116.293 187.176 116.434 187.211 116.512 187.25ZM120.684 189.312V200H118.516V187.32H120.625L120.684 189.312ZM124.645 187.25L124.633 189.266C124.453 189.227 124.281 189.203 124.117 189.195C123.961 189.18 123.781 189.172 123.578 189.172C123.078 189.172 122.637 189.25 122.254 189.406C121.871 189.562 121.547 189.781 121.281 190.062C121.016 190.344 120.805 190.68 120.648 191.07C120.5 191.453 120.402 191.875 120.355 192.336L119.746 192.688C119.746 191.922 119.82 191.203 119.969 190.531C120.125 189.859 120.363 189.266 120.684 188.75C121.004 188.227 121.41 187.82 121.902 187.531C122.402 187.234 122.996 187.086 123.684 187.086C123.84 187.086 124.02 187.105 124.223 187.145C124.426 187.176 124.566 187.211 124.645 187.25ZM133.656 197.832V191.305C133.656 190.805 133.555 190.371 133.352 190.004C133.156 189.629 132.859 189.34 132.461 189.137C132.062 188.934 131.57 188.832 130.984 188.832C130.438 188.832 129.957 188.926 129.543 189.113C129.137 189.301 128.816 189.547 128.582 189.852C128.355 190.156 128.242 190.484 128.242 190.836H126.074C126.074 190.383 126.191 189.934 126.426 189.488C126.66 189.043 126.996 188.641 127.434 188.281C127.879 187.914 128.41 187.625 129.027 187.414C129.652 187.195 130.348 187.086 131.113 187.086C132.035 187.086 132.848 187.242 133.551 187.555C134.262 187.867 134.816 188.34 135.215 188.973C135.621 189.598 135.824 190.383 135.824 191.328V197.234C135.824 197.656 135.859 198.105 135.93 198.582C136.008 199.059 136.121 199.469 136.27 199.812V200H134.008C133.898 199.75 133.812 199.418 133.75 199.004C133.688 198.582 133.656 198.191 133.656 197.832ZM134.031 192.312L134.055 193.836H131.863C131.246 193.836 130.695 193.887 130.211 193.988C129.727 194.082 129.32 194.227 128.992 194.422C128.664 194.617 128.414 194.863 128.242 195.16C128.07 195.449 127.984 195.789 127.984 196.18C127.984 196.578 128.074 196.941 128.254 197.27C128.434 197.598 128.703 197.859 129.062 198.055C129.43 198.242 129.879 198.336 130.41 198.336C131.074 198.336 131.66 198.195 132.168 197.914C132.676 197.633 133.078 197.289 133.375 196.883C133.68 196.477 133.844 196.082 133.867 195.699L134.793 196.742C134.738 197.07 134.59 197.434 134.348 197.832C134.105 198.23 133.781 198.613 133.375 198.98C132.977 199.34 132.5 199.641 131.945 199.883C131.398 200.117 130.781 200.234 130.094 200.234C129.234 200.234 128.48 200.066 127.832 199.73C127.191 199.395 126.691 198.945 126.332 198.383C125.98 197.812 125.805 197.176 125.805 196.473C125.805 195.793 125.938 195.195 126.203 194.68C126.469 194.156 126.852 193.723 127.352 193.379C127.852 193.027 128.453 192.762 129.156 192.582C129.859 192.402 130.645 192.312 131.512 192.312H134.031ZM144.543 187.32V188.984H137.688V187.32H144.543ZM140.008 184.238H142.176V196.859C142.176 197.289 142.242 197.613 142.375 197.832C142.508 198.051 142.68 198.195 142.891 198.266C143.102 198.336 143.328 198.371 143.57 198.371C143.75 198.371 143.938 198.355 144.133 198.324C144.336 198.285 144.488 198.254 144.59 198.23L144.602 200C144.43 200.055 144.203 200.105 143.922 200.152C143.648 200.207 143.316 200.234 142.926 200.234C142.395 200.234 141.906 200.129 141.461 199.918C141.016 199.707 140.66 199.355 140.395 198.863C140.137 198.363 140.008 197.691 140.008 196.848V184.238ZM149.441 187.32V200H147.262V187.32H149.441ZM147.098 183.957C147.098 183.605 147.203 183.309 147.414 183.066C147.633 182.824 147.953 182.703 148.375 182.703C148.789 182.703 149.105 182.824 149.324 183.066C149.551 183.309 149.664 183.605 149.664 183.957C149.664 184.293 149.551 184.582 149.324 184.824C149.105 185.059 148.789 185.176 148.375 185.176C147.953 185.176 147.633 185.059 147.414 184.824C147.203 184.582 147.098 184.293 147.098 183.957ZM156.777 198.043L160.246 187.32H162.461L157.902 200H156.449L156.777 198.043ZM153.883 187.32L157.457 198.102L157.703 200H156.25L151.656 187.32H153.883ZM169.645 200.234C168.762 200.234 167.961 200.086 167.242 199.789C166.531 199.484 165.918 199.059 165.402 198.512C164.895 197.965 164.504 197.316 164.23 196.566C163.957 195.816 163.82 194.996 163.82 194.105V193.613C163.82 192.582 163.973 191.664 164.277 190.859C164.582 190.047 164.996 189.359 165.52 188.797C166.043 188.234 166.637 187.809 167.301 187.52C167.965 187.23 168.652 187.086 169.363 187.086C170.27 187.086 171.051 187.242 171.707 187.555C172.371 187.867 172.914 188.305 173.336 188.867C173.758 189.422 174.07 190.078 174.273 190.836C174.477 191.586 174.578 192.406 174.578 193.297V194.27H165.109V192.5H172.41V192.336C172.379 191.773 172.262 191.227 172.059 190.695C171.863 190.164 171.551 189.727 171.121 189.383C170.691 189.039 170.105 188.867 169.363 188.867C168.871 188.867 168.418 188.973 168.004 189.184C167.59 189.387 167.234 189.691 166.938 190.098C166.641 190.504 166.41 191 166.246 191.586C166.082 192.172 166 192.848 166 193.613V194.105C166 194.707 166.082 195.273 166.246 195.805C166.418 196.328 166.664 196.789 166.984 197.188C167.312 197.586 167.707 197.898 168.168 198.125C168.637 198.352 169.168 198.465 169.762 198.465C170.527 198.465 171.176 198.309 171.707 197.996C172.238 197.684 172.703 197.266 173.102 196.742L174.414 197.785C174.141 198.199 173.793 198.594 173.371 198.969C172.949 199.344 172.43 199.648 171.812 199.883C171.203 200.117 170.48 200.234 169.645 200.234Z" fill="white"/>
<path fill-rule="evenodd" clip-rule="evenodd" d="M230 34C235.523 34 240 29.5228 240 24C240 18.4772 235.523 14 230 14C224.477 14 220 18.4772 220 24C220 29.5228 224.477 34 230 34ZM230 36C236.627 36 242 30.6274 242 24C242 17.3726 236.627 12 230 12C223.373 12 218 17.3726 218 24C218 30.6274 223.373 36 230 36Z" fill="white"/>
<path fill-rule="evenodd" clip-rule="evenodd" d="M228.8 31.2002H231.2V21.6002H228.8V31.2002ZM228.8 19.2002H231.2V16.8002H228.8V19.2002Z" fill="white"/>
</g>
<defs>
<clipPath id="clip0_1_3699">
<rect width="254" height="254" rx="24" fill="white"/>
</clipPath>
</defs>
</svg>
