<svg width="254" height="254" viewBox="0 0 254 254" fill="none" xmlns="http://www.w3.org/2000/svg">
<g clip-path="url(#clip0_1_3696)">
<rect width="254" height="254" rx="24" fill="#2DAEB7"/>
<path d="M132 52V62C153.95 64.7 169.5 84.65 166.8 106.6C165.696 115.445 161.675 123.669 155.372 129.972C149.069 136.275 140.845 140.296 132 141.4V151.4C159.5 148.4 179.25 123.7 176.25 96.25C173.65 72.95 155.3 54.5 132 52ZM122 52C112.2 52.9 102.95 56.75 95.35 63L102.5 70.7C108.1 66.2 114.85 63.3 122 62.3V52ZM88.3 70.35C82.0284 77.9248 78.1785 87.2098 77.25 97H87.25C88.2 89.9 91 83.15 95.45 77.5L88.3 70.35ZM77.3 107C78.3 116.8 82.15 126.05 88.35 133.65L95.45 126.5C91.0346 120.848 88.2198 114.113 87.3 107H77.3ZM102.3 133.85L95.35 140.7C102.924 147.014 112.196 150.945 122 152V142C114.887 141.08 108.152 138.265 102.5 133.85H102.3Z" fill="white"/>
<path d="M43.0352 182.938V200H40.7734V182.938H43.0352ZM53.3359 182.938L46.2461 190.895L42.2617 195.031L41.8867 192.617L44.8867 189.312L50.6172 182.938H53.3359ZM51.1562 200L44.8398 191.68L46.1875 189.887L53.8516 200H51.1562ZM60.4727 200.234C59.5898 200.234 58.7891 200.086 58.0703 199.789C57.3594 199.484 56.7461 199.059 56.2305 198.512C55.7227 197.965 55.332 197.316 55.0586 196.566C54.7852 195.816 54.6484 194.996 54.6484 194.105V193.613C54.6484 192.582 54.8008 191.664 55.1055 190.859C55.4102 190.047 55.8242 189.359 56.3477 188.797C56.8711 188.234 57.4648 187.809 58.1289 187.52C58.793 187.23 59.4805 187.086 60.1914 187.086C61.0977 187.086 61.8789 187.242 62.5352 187.555C63.1992 187.867 63.7422 188.305 64.1641 188.867C64.5859 189.422 64.8984 190.078 65.1016 190.836C65.3047 191.586 65.4062 192.406 65.4062 193.297V194.27H55.9375V192.5H63.2383V192.336C63.207 191.773 63.0898 191.227 62.8867 190.695C62.6914 190.164 62.3789 189.727 61.9492 189.383C61.5195 189.039 60.9336 188.867 60.1914 188.867C59.6992 188.867 59.2461 188.973 58.832 189.184C58.418 189.387 58.0625 189.691 57.7656 190.098C57.4688 190.504 57.2383 191 57.0742 191.586C56.9102 192.172 56.8281 192.848 56.8281 193.613V194.105C56.8281 194.707 56.9102 195.273 57.0742 195.805C57.2461 196.328 57.4922 196.789 57.8125 197.188C58.1406 197.586 58.5352 197.898 58.9961 198.125C59.4648 198.352 59.9961 198.465 60.5898 198.465C61.3555 198.465 62.0039 198.309 62.5352 197.996C63.0664 197.684 63.5312 197.266 63.9297 196.742L65.2422 197.785C64.9688 198.199 64.6211 198.594 64.1992 198.969C63.7773 199.344 63.2578 199.648 62.6406 199.883C62.0312 200.117 61.3086 200.234 60.4727 200.234ZM71.3359 198.688L74.8633 187.32H77.1836L72.0977 201.957C71.9805 202.27 71.8242 202.605 71.6289 202.965C71.4414 203.332 71.1992 203.68 70.9023 204.008C70.6055 204.336 70.2461 204.602 69.8242 204.805C69.4102 205.016 68.9141 205.121 68.3359 205.121C68.1641 205.121 67.9453 205.098 67.6797 205.051C67.4141 205.004 67.2266 204.965 67.1172 204.934L67.1055 203.176C67.168 203.184 67.2656 203.191 67.3984 203.199C67.5391 203.215 67.6367 203.223 67.6914 203.223C68.1836 203.223 68.6016 203.156 68.9453 203.023C69.2891 202.898 69.5781 202.684 69.8125 202.379C70.0547 202.082 70.2617 201.672 70.4336 201.148L71.3359 198.688ZM68.7461 187.32L72.0391 197.164L72.6016 199.449L71.043 200.246L66.3789 187.32H68.7461ZM95.7227 194.574H97.9727C97.8555 195.652 97.5469 196.617 97.0469 197.469C96.5469 198.32 95.8398 198.996 94.9258 199.496C94.0117 199.988 92.8711 200.234 91.5039 200.234C90.5039 200.234 89.5938 200.047 88.7734 199.672C87.9609 199.297 87.2617 198.766 86.6758 198.078C86.0898 197.383 85.6367 196.551 85.3164 195.582C85.0039 194.605 84.8477 193.52 84.8477 192.324V190.625C84.8477 189.43 85.0039 188.348 85.3164 187.379C85.6367 186.402 86.0938 185.566 86.6875 184.871C87.2891 184.176 88.0117 183.641 88.8555 183.266C89.6992 182.891 90.6484 182.703 91.7031 182.703C92.9922 182.703 94.082 182.945 94.9727 183.43C95.8633 183.914 96.5547 184.586 97.0469 185.445C97.5469 186.297 97.8555 187.285 97.9727 188.41H95.7227C95.6133 187.613 95.4102 186.93 95.1133 186.359C94.8164 185.781 94.3945 185.336 93.8477 185.023C93.3008 184.711 92.5859 184.555 91.7031 184.555C90.9453 184.555 90.2773 184.699 89.6992 184.988C89.1289 185.277 88.6484 185.688 88.2578 186.219C87.875 186.75 87.5859 187.387 87.3906 188.129C87.1953 188.871 87.0977 189.695 87.0977 190.602V192.324C87.0977 193.16 87.1836 193.945 87.3555 194.68C87.5352 195.414 87.8047 196.059 88.1641 196.613C88.5234 197.168 88.9805 197.605 89.5352 197.926C90.0898 198.238 90.7461 198.395 91.5039 198.395C92.4648 198.395 93.2305 198.242 93.8008 197.938C94.3711 197.633 94.8008 197.195 95.0898 196.625C95.3867 196.055 95.5977 195.371 95.7227 194.574ZM100.152 193.801V193.531C100.152 192.617 100.285 191.77 100.551 190.988C100.816 190.199 101.199 189.516 101.699 188.938C102.199 188.352 102.805 187.898 103.516 187.578C104.227 187.25 105.023 187.086 105.906 187.086C106.797 187.086 107.598 187.25 108.309 187.578C109.027 187.898 109.637 188.352 110.137 188.938C110.645 189.516 111.031 190.199 111.297 190.988C111.562 191.77 111.695 192.617 111.695 193.531V193.801C111.695 194.715 111.562 195.562 111.297 196.344C111.031 197.125 110.645 197.809 110.137 198.395C109.637 198.973 109.031 199.426 108.32 199.754C107.617 200.074 106.82 200.234 105.93 200.234C105.039 200.234 104.238 200.074 103.527 199.754C102.816 199.426 102.207 198.973 101.699 198.395C101.199 197.809 100.816 197.125 100.551 196.344C100.285 195.562 100.152 194.715 100.152 193.801ZM102.32 193.531V193.801C102.32 194.434 102.395 195.031 102.543 195.594C102.691 196.148 102.914 196.641 103.211 197.07C103.516 197.5 103.895 197.84 104.348 198.09C104.801 198.332 105.328 198.453 105.93 198.453C106.523 198.453 107.043 198.332 107.488 198.09C107.941 197.84 108.316 197.5 108.613 197.07C108.91 196.641 109.133 196.148 109.281 195.594C109.438 195.031 109.516 194.434 109.516 193.801V193.531C109.516 192.906 109.438 192.316 109.281 191.762C109.133 191.199 108.906 190.703 108.602 190.273C108.305 189.836 107.93 189.492 107.477 189.242C107.031 188.992 106.508 188.867 105.906 188.867C105.312 188.867 104.789 188.992 104.336 189.242C103.891 189.492 103.516 189.836 103.211 190.273C102.914 190.703 102.691 191.199 102.543 191.762C102.395 192.316 102.32 192.906 102.32 193.531ZM116.582 190.027V200H114.414V187.32H116.465L116.582 190.027ZM116.066 193.18L115.164 193.145C115.172 192.277 115.301 191.477 115.551 190.742C115.801 190 116.152 189.355 116.605 188.809C117.059 188.262 117.598 187.84 118.223 187.543C118.855 187.238 119.555 187.086 120.32 187.086C120.945 187.086 121.508 187.172 122.008 187.344C122.508 187.508 122.934 187.773 123.285 188.141C123.645 188.508 123.918 188.984 124.105 189.57C124.293 190.148 124.387 190.855 124.387 191.691V200H122.207V191.668C122.207 191.004 122.109 190.473 121.914 190.074C121.719 189.668 121.434 189.375 121.059 189.195C120.684 189.008 120.223 188.914 119.676 188.914C119.137 188.914 118.645 189.027 118.199 189.254C117.762 189.48 117.383 189.793 117.062 190.191C116.75 190.59 116.504 191.047 116.324 191.562C116.152 192.07 116.066 192.609 116.066 193.18ZM132.988 187.32V188.984H126.133V187.32H132.988ZM128.453 184.238H130.621V196.859C130.621 197.289 130.688 197.613 130.82 197.832C130.953 198.051 131.125 198.195 131.336 198.266C131.547 198.336 131.773 198.371 132.016 198.371C132.195 198.371 132.383 198.355 132.578 198.324C132.781 198.285 132.934 198.254 133.035 198.23L133.047 200C132.875 200.055 132.648 200.105 132.367 200.152C132.094 200.207 131.762 200.234 131.371 200.234C130.84 200.234 130.352 200.129 129.906 199.918C129.461 199.707 129.105 199.355 128.84 198.863C128.582 198.363 128.453 197.691 128.453 196.848V184.238ZM137.699 189.312V200H135.531V187.32H137.641L137.699 189.312ZM141.66 187.25L141.648 189.266C141.469 189.227 141.297 189.203 141.133 189.195C140.977 189.18 140.797 189.172 140.594 189.172C140.094 189.172 139.652 189.25 139.27 189.406C138.887 189.562 138.562 189.781 138.297 190.062C138.031 190.344 137.82 190.68 137.664 191.07C137.516 191.453 137.418 191.875 137.371 192.336L136.762 192.688C136.762 191.922 136.836 191.203 136.984 190.531C137.141 189.859 137.379 189.266 137.699 188.75C138.02 188.227 138.426 187.82 138.918 187.531C139.418 187.234 140.012 187.086 140.699 187.086C140.855 187.086 141.035 187.105 141.238 187.145C141.441 187.176 141.582 187.211 141.66 187.25ZM146.02 187.32V200H143.84V187.32H146.02ZM143.676 183.957C143.676 183.605 143.781 183.309 143.992 183.066C144.211 182.824 144.531 182.703 144.953 182.703C145.367 182.703 145.684 182.824 145.902 183.066C146.129 183.309 146.242 183.605 146.242 183.957C146.242 184.293 146.129 184.582 145.902 184.824C145.684 185.059 145.367 185.176 144.953 185.176C144.531 185.176 144.211 185.059 143.992 184.824C143.781 184.582 143.676 184.293 143.676 183.957ZM149.488 182H151.668V197.539L151.48 200H149.488V182ZM160.234 193.555V193.801C160.234 194.723 160.125 195.578 159.906 196.367C159.688 197.148 159.367 197.828 158.945 198.406C158.523 198.984 158.008 199.434 157.398 199.754C156.789 200.074 156.09 200.234 155.301 200.234C154.496 200.234 153.789 200.098 153.18 199.824C152.578 199.543 152.07 199.141 151.656 198.617C151.242 198.094 150.91 197.461 150.66 196.719C150.418 195.977 150.25 195.141 150.156 194.211V193.133C150.25 192.195 150.418 191.355 150.66 190.613C150.91 189.871 151.242 189.238 151.656 188.715C152.07 188.184 152.578 187.781 153.18 187.508C153.781 187.227 154.48 187.086 155.277 187.086C156.074 187.086 156.781 187.242 157.398 187.555C158.016 187.859 158.531 188.297 158.945 188.867C159.367 189.438 159.688 190.121 159.906 190.918C160.125 191.707 160.234 192.586 160.234 193.555ZM158.055 193.801V193.555C158.055 192.922 157.996 192.328 157.879 191.773C157.762 191.211 157.574 190.719 157.316 190.297C157.059 189.867 156.719 189.531 156.297 189.289C155.875 189.039 155.355 188.914 154.738 188.914C154.191 188.914 153.715 189.008 153.309 189.195C152.91 189.383 152.57 189.637 152.289 189.957C152.008 190.27 151.777 190.629 151.598 191.035C151.426 191.434 151.297 191.848 151.211 192.277V195.102C151.336 195.648 151.539 196.176 151.82 196.684C152.109 197.184 152.492 197.594 152.969 197.914C153.453 198.234 154.051 198.395 154.762 198.395C155.348 198.395 155.848 198.277 156.262 198.043C156.684 197.801 157.023 197.469 157.281 197.047C157.547 196.625 157.742 196.137 157.867 195.582C157.992 195.027 158.055 194.434 158.055 193.801ZM170.734 197.07V187.32H172.914V200H170.84L170.734 197.07ZM171.145 194.398L172.047 194.375C172.047 195.219 171.957 196 171.777 196.719C171.605 197.43 171.324 198.047 170.934 198.57C170.543 199.094 170.031 199.504 169.398 199.801C168.766 200.09 167.996 200.234 167.09 200.234C166.473 200.234 165.906 200.145 165.391 199.965C164.883 199.785 164.445 199.508 164.078 199.133C163.711 198.758 163.426 198.27 163.223 197.668C163.027 197.066 162.93 196.344 162.93 195.5V187.32H165.098V195.523C165.098 196.094 165.16 196.566 165.285 196.941C165.418 197.309 165.594 197.602 165.812 197.82C166.039 198.031 166.289 198.18 166.562 198.266C166.844 198.352 167.133 198.395 167.43 198.395C168.352 198.395 169.082 198.219 169.621 197.867C170.16 197.508 170.547 197.027 170.781 196.426C171.023 195.816 171.145 195.141 171.145 194.398ZM181.527 187.32V188.984H174.672V187.32H181.527ZM176.992 184.238H179.16V196.859C179.16 197.289 179.227 197.613 179.359 197.832C179.492 198.051 179.664 198.195 179.875 198.266C180.086 198.336 180.312 198.371 180.555 198.371C180.734 198.371 180.922 198.355 181.117 198.324C181.32 198.285 181.473 198.254 181.574 198.23L181.586 200C181.414 200.055 181.188 200.105 180.906 200.152C180.633 200.207 180.301 200.234 179.91 200.234C179.379 200.234 178.891 200.129 178.445 199.918C178 199.707 177.645 199.355 177.379 198.863C177.121 198.363 176.992 197.691 176.992 196.848V184.238ZM186.426 187.32V200H184.246V187.32H186.426ZM184.082 183.957C184.082 183.605 184.188 183.309 184.398 183.066C184.617 182.824 184.938 182.703 185.359 182.703C185.773 182.703 186.09 182.824 186.309 183.066C186.535 183.309 186.648 183.605 186.648 183.957C186.648 184.293 186.535 184.582 186.309 184.824C186.09 185.059 185.773 185.176 185.359 185.176C184.938 185.176 184.617 185.059 184.398 184.824C184.188 184.582 184.082 184.293 184.082 183.957ZM189.332 193.801V193.531C189.332 192.617 189.465 191.77 189.73 190.988C189.996 190.199 190.379 189.516 190.879 188.938C191.379 188.352 191.984 187.898 192.695 187.578C193.406 187.25 194.203 187.086 195.086 187.086C195.977 187.086 196.777 187.25 197.488 187.578C198.207 187.898 198.816 188.352 199.316 188.938C199.824 189.516 200.211 190.199 200.477 190.988C200.742 191.77 200.875 192.617 200.875 193.531V193.801C200.875 194.715 200.742 195.562 200.477 196.344C200.211 197.125 199.824 197.809 199.316 198.395C198.816 198.973 198.211 199.426 197.5 199.754C196.797 200.074 196 200.234 195.109 200.234C194.219 200.234 193.418 200.074 192.707 199.754C191.996 199.426 191.387 198.973 190.879 198.395C190.379 197.809 189.996 197.125 189.73 196.344C189.465 195.562 189.332 194.715 189.332 193.801ZM191.5 193.531V193.801C191.5 194.434 191.574 195.031 191.723 195.594C191.871 196.148 192.094 196.641 192.391 197.07C192.695 197.5 193.074 197.84 193.527 198.09C193.98 198.332 194.508 198.453 195.109 198.453C195.703 198.453 196.223 198.332 196.668 198.09C197.121 197.84 197.496 197.5 197.793 197.07C198.09 196.641 198.312 196.148 198.461 195.594C198.617 195.031 198.695 194.434 198.695 193.801V193.531C198.695 192.906 198.617 192.316 198.461 191.762C198.312 191.199 198.086 190.703 197.781 190.273C197.484 189.836 197.109 189.492 196.656 189.242C196.211 188.992 195.688 188.867 195.086 188.867C194.492 188.867 193.969 188.992 193.516 189.242C193.07 189.492 192.695 189.836 192.391 190.273C192.094 190.703 191.871 191.199 191.723 191.762C191.574 192.316 191.5 192.906 191.5 193.531ZM205.762 190.027V200H203.594V187.32H205.645L205.762 190.027ZM205.246 193.18L204.344 193.145C204.352 192.277 204.48 191.477 204.73 190.742C204.98 190 205.332 189.355 205.785 188.809C206.238 188.262 206.777 187.84 207.402 187.543C208.035 187.238 208.734 187.086 209.5 187.086C210.125 187.086 210.688 187.172 211.188 187.344C211.688 187.508 212.113 187.773 212.465 188.141C212.824 188.508 213.098 188.984 213.285 189.57C213.473 190.148 213.566 190.855 213.566 191.691V200H211.387V191.668C211.387 191.004 211.289 190.473 211.094 190.074C210.898 189.668 210.613 189.375 210.238 189.195C209.863 189.008 209.402 188.914 208.855 188.914C208.316 188.914 207.824 189.027 207.379 189.254C206.941 189.48 206.562 189.793 206.242 190.191C205.93 190.59 205.684 191.047 205.504 191.562C205.332 192.07 205.246 192.609 205.246 193.18Z" fill="white"/>
<path fill-rule="evenodd" clip-rule="evenodd" d="M230 34C235.523 34 240 29.5228 240 24C240 18.4772 235.523 14 230 14C224.477 14 220 18.4772 220 24C220 29.5228 224.477 34 230 34ZM230 36C236.627 36 242 30.6274 242 24C242 17.3726 236.627 12 230 12C223.373 12 218 17.3726 218 24C218 30.6274 223.373 36 230 36Z" fill="white"/>
<path fill-rule="evenodd" clip-rule="evenodd" d="M228.8 31.2002H231.2V21.6002H228.8V31.2002ZM228.8 19.2002H231.2V16.8002H228.8V19.2002Z" fill="white"/>
</g>
<defs>
<clipPath id="clip0_1_3696">
<rect width="254" height="254" rx="24" fill="white"/>
</clipPath>
</defs>
</svg>
