<svg width="254" height="254" viewBox="0 0 254 254" fill="none" xmlns="http://www.w3.org/2000/svg">
<g clip-path="url(#clip0_1_3705)">
<rect width="254" height="254" rx="24" fill="#2DAEB7"/>
<path d="M169.277 59.7224H169.27L181.84 62.2349C182.515 62.3699 183.07 62.8649 183.265 63.5324C183.363 63.8567 183.372 64.2015 183.29 64.5304C183.208 64.8592 183.039 65.1597 182.8 65.3999L172.502 75.7049C171.27 76.9347 169.601 77.6252 167.86 77.6249H159.325L137.875 99.0824C138.284 100.628 138.359 102.242 138.096 103.819C137.832 105.395 137.235 106.898 136.346 108.225C135.456 109.553 134.293 110.676 132.935 111.52C131.577 112.363 130.055 112.907 128.471 113.116C126.886 113.325 125.275 113.194 123.745 112.731C122.215 112.269 120.801 111.486 119.597 110.434C118.394 109.382 117.428 108.086 116.765 106.632C116.101 105.177 115.755 103.598 115.75 102C115.751 100.274 116.149 98.5717 116.913 97.0241C117.677 95.4766 118.786 94.1254 120.156 93.075C121.525 92.0246 123.118 91.3032 124.81 90.9663C126.503 90.6295 128.25 90.6863 129.917 91.1324L151.375 69.6674V61.1399C151.375 59.3999 152.065 57.7274 153.295 56.4974L163.6 46.1924C163.84 45.9534 164.141 45.7839 164.47 45.702C164.798 45.6202 165.143 45.6289 165.467 45.7274C166.135 45.9224 166.63 46.4774 166.765 47.1524L169.277 59.7224Z" fill="white"/>
<path d="M82 102C82.0077 108.435 83.3953 114.793 86.0693 120.646C88.7432 126.499 92.6412 131.71 97.5004 135.928C102.36 140.146 108.067 143.273 114.238 145.098C120.408 146.923 126.898 147.404 133.27 146.507C139.642 145.611 145.748 143.358 151.175 139.901C156.602 136.444 161.225 131.863 164.732 126.468C168.238 121.073 170.547 114.988 171.502 108.625C172.457 102.261 172.036 95.7669 170.267 89.58C170.019 88.8571 169.921 88.0913 169.978 87.3292C170.035 86.5671 170.247 85.8245 170.6 85.1468C170.953 84.4691 171.441 83.8703 172.033 83.387C172.625 82.9037 173.309 82.546 174.044 82.3355C174.778 82.1251 175.548 82.0664 176.306 82.163C177.065 82.2596 177.795 82.5095 178.454 82.8974C179.112 83.2854 179.685 83.8033 180.137 84.4196C180.589 85.0359 180.91 85.7378 181.083 86.4825C184.506 98.4639 183.856 111.243 179.233 122.815C174.611 134.387 166.277 144.097 155.541 150.422C144.804 156.746 132.271 159.328 119.909 157.761C107.547 156.194 96.0545 150.568 87.235 141.765C78.4251 132.948 72.7928 121.454 71.2225 109.089C69.6522 96.724 72.2328 84.1876 78.5592 73.448C84.8855 62.7084 94.5993 54.3739 106.175 49.753C117.752 45.1321 130.535 44.4865 142.518 47.9175C143.944 48.3346 145.148 49.2995 145.866 50.6014C146.583 51.9032 146.756 53.4362 146.347 54.8653C145.938 56.2944 144.979 57.5033 143.681 58.2279C142.383 58.9526 140.851 59.134 139.42 58.7325C132.719 56.81 125.664 56.4702 118.809 57.74C111.955 59.0097 105.489 61.8543 99.9219 66.0495C94.3546 70.2446 89.8378 75.6756 86.7277 81.9144C83.6176 88.1531 81.9992 95.029 82 102Z" fill="white"/>
<path d="M104.5 102C104.5 106.099 105.62 110.121 107.738 113.631C109.856 117.141 112.893 120.006 116.519 121.917C120.146 123.828 124.226 124.712 128.318 124.475C132.411 124.238 136.361 122.887 139.742 120.57C143.123 118.247 145.805 115.043 147.497 111.306C149.189 107.569 149.827 103.441 149.342 99.3675C149.211 98.379 149.346 97.3735 149.733 96.4543C150.12 95.5352 150.744 94.7358 151.543 94.1384C152.341 93.541 153.284 93.1671 154.275 93.0553C155.266 92.9436 156.269 93.0979 157.18 93.5025C158.091 93.9018 158.88 94.5357 159.466 95.3394C160.053 96.1431 160.415 97.0879 160.517 98.0775C161.332 105.038 159.96 112.08 156.591 118.226C153.222 124.371 148.024 129.315 141.718 132.372C135.411 135.429 128.309 136.447 121.398 135.284C114.487 134.122 108.109 130.837 103.15 125.885C98.1903 120.933 94.8955 114.56 93.7225 107.651C92.5495 100.741 93.5566 93.6381 96.6039 87.327C99.6512 81.0159 104.588 75.81 110.728 72.4318C116.868 69.0536 123.908 67.6707 130.87 68.475C131.615 68.5442 132.34 68.7615 133 69.1141C133.66 69.4668 134.244 69.9477 134.716 70.5288C135.188 71.1098 135.539 71.7793 135.749 72.4979C135.959 73.2165 136.024 73.9698 135.939 74.7136C135.854 75.4574 135.622 76.1768 135.255 76.8297C134.889 77.4825 134.396 78.0556 133.805 78.5153C133.214 78.9751 132.537 79.3123 131.814 79.5071C131.091 79.702 130.337 79.7505 129.595 79.65C126.442 79.284 123.248 79.589 120.222 80.5451C117.195 81.5012 114.406 83.0868 112.036 85.1976C109.666 87.3084 107.769 89.8967 106.47 92.7926C105.171 95.6884 104.5 98.8263 104.5 102Z" fill="white"/>
<path d="M117.121 191.504V197.75C116.91 198.062 116.574 198.414 116.113 198.805C115.652 199.188 115.016 199.523 114.203 199.812C113.398 200.094 112.359 200.234 111.086 200.234C110.047 200.234 109.09 200.055 108.215 199.695C107.348 199.328 106.594 198.797 105.953 198.102C105.32 197.398 104.828 196.547 104.477 195.547C104.133 194.539 103.961 193.398 103.961 192.125V190.801C103.961 189.527 104.109 188.391 104.406 187.391C104.711 186.391 105.156 185.543 105.742 184.848C106.328 184.145 107.047 183.613 107.898 183.254C108.75 182.887 109.727 182.703 110.828 182.703C112.133 182.703 113.223 182.93 114.098 183.383C114.98 183.828 115.668 184.445 116.16 185.234C116.66 186.023 116.98 186.922 117.121 187.93H114.859C114.758 187.312 114.555 186.75 114.25 186.242C113.953 185.734 113.527 185.328 112.973 185.023C112.418 184.711 111.703 184.555 110.828 184.555C110.039 184.555 109.355 184.699 108.777 184.988C108.199 185.277 107.723 185.691 107.348 186.23C106.973 186.77 106.691 187.422 106.504 188.188C106.324 188.953 106.234 189.816 106.234 190.777V192.125C106.234 193.109 106.348 193.988 106.574 194.762C106.809 195.535 107.141 196.195 107.57 196.742C108 197.281 108.512 197.691 109.105 197.973C109.707 198.254 110.371 198.395 111.098 198.395C111.902 198.395 112.555 198.328 113.055 198.195C113.555 198.055 113.945 197.891 114.227 197.703C114.508 197.508 114.723 197.324 114.871 197.152V193.332H110.922V191.504H117.121ZM119.969 193.801V193.531C119.969 192.617 120.102 191.77 120.367 190.988C120.633 190.199 121.016 189.516 121.516 188.938C122.016 188.352 122.621 187.898 123.332 187.578C124.043 187.25 124.84 187.086 125.723 187.086C126.613 187.086 127.414 187.25 128.125 187.578C128.844 187.898 129.453 188.352 129.953 188.938C130.461 189.516 130.848 190.199 131.113 190.988C131.379 191.77 131.512 192.617 131.512 193.531V193.801C131.512 194.715 131.379 195.562 131.113 196.344C130.848 197.125 130.461 197.809 129.953 198.395C129.453 198.973 128.848 199.426 128.137 199.754C127.434 200.074 126.637 200.234 125.746 200.234C124.855 200.234 124.055 200.074 123.344 199.754C122.633 199.426 122.023 198.973 121.516 198.395C121.016 197.809 120.633 197.125 120.367 196.344C120.102 195.562 119.969 194.715 119.969 193.801ZM122.137 193.531V193.801C122.137 194.434 122.211 195.031 122.359 195.594C122.508 196.148 122.73 196.641 123.027 197.07C123.332 197.5 123.711 197.84 124.164 198.09C124.617 198.332 125.145 198.453 125.746 198.453C126.34 198.453 126.859 198.332 127.305 198.09C127.758 197.84 128.133 197.5 128.43 197.07C128.727 196.641 128.949 196.148 129.098 195.594C129.254 195.031 129.332 194.434 129.332 193.801V193.531C129.332 192.906 129.254 192.316 129.098 191.762C128.949 191.199 128.723 190.703 128.418 190.273C128.121 189.836 127.746 189.492 127.293 189.242C126.848 188.992 126.324 188.867 125.723 188.867C125.129 188.867 124.605 188.992 124.152 189.242C123.707 189.492 123.332 189.836 123.027 190.273C122.73 190.703 122.508 191.199 122.359 191.762C122.211 192.316 122.137 192.906 122.137 193.531ZM141.707 197.832V191.305C141.707 190.805 141.605 190.371 141.402 190.004C141.207 189.629 140.91 189.34 140.512 189.137C140.113 188.934 139.621 188.832 139.035 188.832C138.488 188.832 138.008 188.926 137.594 189.113C137.188 189.301 136.867 189.547 136.633 189.852C136.406 190.156 136.293 190.484 136.293 190.836H134.125C134.125 190.383 134.242 189.934 134.477 189.488C134.711 189.043 135.047 188.641 135.484 188.281C135.93 187.914 136.461 187.625 137.078 187.414C137.703 187.195 138.398 187.086 139.164 187.086C140.086 187.086 140.898 187.242 141.602 187.555C142.312 187.867 142.867 188.34 143.266 188.973C143.672 189.598 143.875 190.383 143.875 191.328V197.234C143.875 197.656 143.91 198.105 143.98 198.582C144.059 199.059 144.172 199.469 144.32 199.812V200H142.059C141.949 199.75 141.863 199.418 141.801 199.004C141.738 198.582 141.707 198.191 141.707 197.832ZM142.082 192.312L142.105 193.836H139.914C139.297 193.836 138.746 193.887 138.262 193.988C137.777 194.082 137.371 194.227 137.043 194.422C136.715 194.617 136.465 194.863 136.293 195.16C136.121 195.449 136.035 195.789 136.035 196.18C136.035 196.578 136.125 196.941 136.305 197.27C136.484 197.598 136.754 197.859 137.113 198.055C137.48 198.242 137.93 198.336 138.461 198.336C139.125 198.336 139.711 198.195 140.219 197.914C140.727 197.633 141.129 197.289 141.426 196.883C141.73 196.477 141.895 196.082 141.918 195.699L142.844 196.742C142.789 197.07 142.641 197.434 142.398 197.832C142.156 198.23 141.832 198.613 141.426 198.98C141.027 199.34 140.551 199.641 139.996 199.883C139.449 200.117 138.832 200.234 138.145 200.234C137.285 200.234 136.531 200.066 135.883 199.73C135.242 199.395 134.742 198.945 134.383 198.383C134.031 197.812 133.855 197.176 133.855 196.473C133.855 195.793 133.988 195.195 134.254 194.68C134.52 194.156 134.902 193.723 135.402 193.379C135.902 193.027 136.504 192.762 137.207 192.582C137.91 192.402 138.695 192.312 139.562 192.312H142.082ZM149.641 182V200H147.461V182H149.641Z" fill="white"/>
<path fill-rule="evenodd" clip-rule="evenodd" d="M230 34C235.523 34 240 29.5228 240 24C240 18.4772 235.523 14 230 14C224.477 14 220 18.4772 220 24C220 29.5228 224.477 34 230 34ZM230 36C236.627 36 242 30.6274 242 24C242 17.3726 236.627 12 230 12C223.373 12 218 17.3726 218 24C218 30.6274 223.373 36 230 36Z" fill="white"/>
<path fill-rule="evenodd" clip-rule="evenodd" d="M228.8 31.2002H231.2V21.6002H228.8V31.2002ZM228.8 19.2002H231.2V16.8002H228.8V19.2002Z" fill="white"/>
</g>
<defs>
<clipPath id="clip0_1_3705">
<rect width="254" height="254" rx="24" fill="white"/>
</clipPath>
</defs>
</svg>
