<svg width="254" height="254" viewBox="0 0 254 254" fill="none" xmlns="http://www.w3.org/2000/svg">
<g clip-path="url(#clip0_1_3706)">
<rect width="254" height="254" rx="24" fill="#2DAEB7"/>
<path fill-rule="evenodd" clip-rule="evenodd" d="M92 55.3334C91.0795 55.3334 90.3333 56.0796 90.3333 57.0001V147C90.3333 147.921 91.0795 148.667 92 148.667H162C162.92 148.667 163.667 147.921 163.667 147V57.0001C163.667 56.0796 162.92 55.3334 162 55.3334H92ZM83.6667 57.0001C83.6667 52.3977 87.3976 48.6667 92 48.6667H162C166.602 48.6667 170.333 52.3977 170.333 57.0001V147C170.333 151.602 166.602 155.333 162 155.333H92C87.3976 155.333 83.6667 151.602 83.6667 147V57.0001Z" fill="white"/>
<path fill-rule="evenodd" clip-rule="evenodd" d="M107 48.6667C105.159 48.6667 103.667 50.1591 103.667 52.0001V92.0001C103.667 93.3127 104.437 94.5031 105.634 95.0409C106.832 95.5786 108.233 95.3635 109.215 94.4914L118.25 86.4599L127.285 94.4914C128.267 95.3635 129.668 95.5786 130.866 95.0409C132.063 94.5031 132.833 93.3127 132.833 92.0001V52.0001C132.833 50.1591 131.341 48.6667 129.5 48.6667H107Z" fill="white"/>
<path fill-rule="evenodd" clip-rule="evenodd" d="M103.667 112C103.667 110.159 105.159 108.667 107 108.667H132C133.841 108.667 135.333 110.159 135.333 112C135.333 113.841 133.841 115.333 132 115.333H107C105.159 115.333 103.667 113.841 103.667 112ZM103.667 127C103.667 125.159 105.159 123.667 107 123.667H147C148.841 123.667 150.333 125.159 150.333 127C150.333 128.841 148.841 130.333 147 130.333H107C105.159 130.333 103.667 128.841 103.667 127Z" fill="white"/>
<path d="M76.6094 184.449L70.9609 200H68.6523L75.1562 182.938H76.6445L76.6094 184.449ZM81.3438 200L75.6836 184.449L75.6484 182.938H77.1367L83.6641 200H81.3438ZM81.0508 193.684V195.535H71.4648V193.684H81.0508ZM93.8359 187.32H95.8047V199.73C95.8047 200.848 95.5781 201.801 95.125 202.59C94.6719 203.379 94.0391 203.977 93.2266 204.383C92.4219 204.797 91.4922 205.004 90.4375 205.004C90 205.004 89.4844 204.934 88.8906 204.793C88.3047 204.66 87.7266 204.43 87.1562 204.102C86.5938 203.781 86.1211 203.348 85.7383 202.801L86.875 201.512C87.4062 202.152 87.9609 202.598 88.5391 202.848C89.125 203.098 89.7031 203.223 90.2734 203.223C90.9609 203.223 91.5547 203.094 92.0547 202.836C92.5547 202.578 92.9414 202.195 93.2148 201.688C93.4961 201.188 93.6367 200.57 93.6367 199.836V190.109L93.8359 187.32ZM85.1055 193.801V193.555C85.1055 192.586 85.2188 191.707 85.4453 190.918C85.6797 190.121 86.0117 189.438 86.4414 188.867C86.8789 188.297 87.4062 187.859 88.0234 187.555C88.6406 187.242 89.3359 187.086 90.1094 187.086C90.9062 187.086 91.6016 187.227 92.1953 187.508C92.7969 187.781 93.3047 188.184 93.7188 188.715C94.1406 189.238 94.4727 189.871 94.7148 190.613C94.957 191.355 95.125 192.195 95.2188 193.133V194.211C95.1328 195.141 94.9648 195.977 94.7148 196.719C94.4727 197.461 94.1406 198.094 93.7188 198.617C93.3047 199.141 92.7969 199.543 92.1953 199.824C91.5938 200.098 90.8906 200.234 90.0859 200.234C89.3281 200.234 88.6406 200.074 88.0234 199.754C87.4141 199.434 86.8906 198.984 86.4531 198.406C86.0156 197.828 85.6797 197.148 85.4453 196.367C85.2188 195.578 85.1055 194.723 85.1055 193.801ZM87.2734 193.555V193.801C87.2734 194.434 87.3359 195.027 87.4609 195.582C87.5938 196.137 87.793 196.625 88.0586 197.047C88.332 197.469 88.6797 197.801 89.1016 198.043C89.5234 198.277 90.0273 198.395 90.6133 198.395C91.332 198.395 91.9258 198.242 92.3945 197.938C92.8633 197.633 93.2344 197.23 93.5078 196.73C93.7891 196.23 94.0078 195.688 94.1641 195.102V192.277C94.0781 191.848 93.9453 191.434 93.7656 191.035C93.5938 190.629 93.3672 190.27 93.0859 189.957C92.8125 189.637 92.4727 189.383 92.0664 189.195C91.6602 189.008 91.1836 188.914 90.6367 188.914C90.043 188.914 89.5312 189.039 89.1016 189.289C88.6797 189.531 88.332 189.867 88.0586 190.297C87.793 190.719 87.5938 191.211 87.4609 191.773C87.3359 192.328 87.2734 192.922 87.2734 193.555ZM101.266 189.312V200H99.0977V187.32H101.207L101.266 189.312ZM105.227 187.25L105.215 189.266C105.035 189.227 104.863 189.203 104.699 189.195C104.543 189.18 104.363 189.172 104.16 189.172C103.66 189.172 103.219 189.25 102.836 189.406C102.453 189.562 102.129 189.781 101.863 190.062C101.598 190.344 101.387 190.68 101.23 191.07C101.082 191.453 100.984 191.875 100.938 192.336L100.328 192.688C100.328 191.922 100.402 191.203 100.551 190.531C100.707 189.859 100.945 189.266 101.266 188.75C101.586 188.227 101.992 187.82 102.484 187.531C102.984 187.234 103.578 187.086 104.266 187.086C104.422 187.086 104.602 187.105 104.805 187.145C105.008 187.176 105.148 187.211 105.227 187.25ZM112.258 200.234C111.375 200.234 110.574 200.086 109.855 199.789C109.145 199.484 108.531 199.059 108.016 198.512C107.508 197.965 107.117 197.316 106.844 196.566C106.57 195.816 106.434 194.996 106.434 194.105V193.613C106.434 192.582 106.586 191.664 106.891 190.859C107.195 190.047 107.609 189.359 108.133 188.797C108.656 188.234 109.25 187.809 109.914 187.52C110.578 187.23 111.266 187.086 111.977 187.086C112.883 187.086 113.664 187.242 114.32 187.555C114.984 187.867 115.527 188.305 115.949 188.867C116.371 189.422 116.684 190.078 116.887 190.836C117.09 191.586 117.191 192.406 117.191 193.297V194.27H107.723V192.5H115.023V192.336C114.992 191.773 114.875 191.227 114.672 190.695C114.477 190.164 114.164 189.727 113.734 189.383C113.305 189.039 112.719 188.867 111.977 188.867C111.484 188.867 111.031 188.973 110.617 189.184C110.203 189.387 109.848 189.691 109.551 190.098C109.254 190.504 109.023 191 108.859 191.586C108.695 192.172 108.613 192.848 108.613 193.613V194.105C108.613 194.707 108.695 195.273 108.859 195.805C109.031 196.328 109.277 196.789 109.598 197.188C109.926 197.586 110.32 197.898 110.781 198.125C111.25 198.352 111.781 198.465 112.375 198.465C113.141 198.465 113.789 198.309 114.32 197.996C114.852 197.684 115.316 197.266 115.715 196.742L117.027 197.785C116.754 198.199 116.406 198.594 115.984 198.969C115.562 199.344 115.043 199.648 114.426 199.883C113.816 200.117 113.094 200.234 112.258 200.234ZM124.984 200.234C124.102 200.234 123.301 200.086 122.582 199.789C121.871 199.484 121.258 199.059 120.742 198.512C120.234 197.965 119.844 197.316 119.57 196.566C119.297 195.816 119.16 194.996 119.16 194.105V193.613C119.16 192.582 119.312 191.664 119.617 190.859C119.922 190.047 120.336 189.359 120.859 188.797C121.383 188.234 121.977 187.809 122.641 187.52C123.305 187.23 123.992 187.086 124.703 187.086C125.609 187.086 126.391 187.242 127.047 187.555C127.711 187.867 128.254 188.305 128.676 188.867C129.098 189.422 129.41 190.078 129.613 190.836C129.816 191.586 129.918 192.406 129.918 193.297V194.27H120.449V192.5H127.75V192.336C127.719 191.773 127.602 191.227 127.398 190.695C127.203 190.164 126.891 189.727 126.461 189.383C126.031 189.039 125.445 188.867 124.703 188.867C124.211 188.867 123.758 188.973 123.344 189.184C122.93 189.387 122.574 189.691 122.277 190.098C121.98 190.504 121.75 191 121.586 191.586C121.422 192.172 121.34 192.848 121.34 193.613V194.105C121.34 194.707 121.422 195.273 121.586 195.805C121.758 196.328 122.004 196.789 122.324 197.188C122.652 197.586 123.047 197.898 123.508 198.125C123.977 198.352 124.508 198.465 125.102 198.465C125.867 198.465 126.516 198.309 127.047 197.996C127.578 197.684 128.043 197.266 128.441 196.742L129.754 197.785C129.48 198.199 129.133 198.594 128.711 198.969C128.289 199.344 127.77 199.648 127.152 199.883C126.543 200.117 125.82 200.234 124.984 200.234ZM134.605 189.84V200H132.426V187.32H134.488L134.605 189.84ZM134.16 193.18L133.152 193.145C133.16 192.277 133.273 191.477 133.492 190.742C133.711 190 134.035 189.355 134.465 188.809C134.895 188.262 135.43 187.84 136.07 187.543C136.711 187.238 137.453 187.086 138.297 187.086C138.891 187.086 139.438 187.172 139.938 187.344C140.438 187.508 140.871 187.77 141.238 188.129C141.605 188.488 141.891 188.949 142.094 189.512C142.297 190.074 142.398 190.754 142.398 191.551V200H140.23V191.656C140.23 190.992 140.117 190.461 139.891 190.062C139.672 189.664 139.359 189.375 138.953 189.195C138.547 189.008 138.07 188.914 137.523 188.914C136.883 188.914 136.348 189.027 135.918 189.254C135.488 189.48 135.145 189.793 134.887 190.191C134.629 190.59 134.441 191.047 134.324 191.562C134.215 192.07 134.16 192.609 134.16 193.18ZM142.375 191.984L140.922 192.43C140.93 191.734 141.043 191.066 141.262 190.426C141.488 189.785 141.812 189.215 142.234 188.715C142.664 188.215 143.191 187.82 143.816 187.531C144.441 187.234 145.156 187.086 145.961 187.086C146.641 187.086 147.242 187.176 147.766 187.355C148.297 187.535 148.742 187.812 149.102 188.188C149.469 188.555 149.746 189.027 149.934 189.605C150.121 190.184 150.215 190.871 150.215 191.668V200H148.035V191.645C148.035 190.934 147.922 190.383 147.695 189.992C147.477 189.594 147.164 189.316 146.758 189.16C146.359 188.996 145.883 188.914 145.328 188.914C144.852 188.914 144.43 188.996 144.062 189.16C143.695 189.324 143.387 189.551 143.137 189.84C142.887 190.121 142.695 190.445 142.562 190.812C142.438 191.18 142.375 191.57 142.375 191.984ZM158.758 200.234C157.875 200.234 157.074 200.086 156.355 199.789C155.645 199.484 155.031 199.059 154.516 198.512C154.008 197.965 153.617 197.316 153.344 196.566C153.07 195.816 152.934 194.996 152.934 194.105V193.613C152.934 192.582 153.086 191.664 153.391 190.859C153.695 190.047 154.109 189.359 154.633 188.797C155.156 188.234 155.75 187.809 156.414 187.52C157.078 187.23 157.766 187.086 158.477 187.086C159.383 187.086 160.164 187.242 160.82 187.555C161.484 187.867 162.027 188.305 162.449 188.867C162.871 189.422 163.184 190.078 163.387 190.836C163.59 191.586 163.691 192.406 163.691 193.297V194.27H154.223V192.5H161.523V192.336C161.492 191.773 161.375 191.227 161.172 190.695C160.977 190.164 160.664 189.727 160.234 189.383C159.805 189.039 159.219 188.867 158.477 188.867C157.984 188.867 157.531 188.973 157.117 189.184C156.703 189.387 156.348 189.691 156.051 190.098C155.754 190.504 155.523 191 155.359 191.586C155.195 192.172 155.113 192.848 155.113 193.613V194.105C155.113 194.707 155.195 195.273 155.359 195.805C155.531 196.328 155.777 196.789 156.098 197.188C156.426 197.586 156.82 197.898 157.281 198.125C157.75 198.352 158.281 198.465 158.875 198.465C159.641 198.465 160.289 198.309 160.82 197.996C161.352 197.684 161.816 197.266 162.215 196.742L163.527 197.785C163.254 198.199 162.906 198.594 162.484 198.969C162.062 199.344 161.543 199.648 160.926 199.883C160.316 200.117 159.594 200.234 158.758 200.234ZM168.391 190.027V200H166.223V187.32H168.273L168.391 190.027ZM167.875 193.18L166.973 193.145C166.98 192.277 167.109 191.477 167.359 190.742C167.609 190 167.961 189.355 168.414 188.809C168.867 188.262 169.406 187.84 170.031 187.543C170.664 187.238 171.363 187.086 172.129 187.086C172.754 187.086 173.316 187.172 173.816 187.344C174.316 187.508 174.742 187.773 175.094 188.141C175.453 188.508 175.727 188.984 175.914 189.57C176.102 190.148 176.195 190.855 176.195 191.691V200H174.016V191.668C174.016 191.004 173.918 190.473 173.723 190.074C173.527 189.668 173.242 189.375 172.867 189.195C172.492 189.008 172.031 188.914 171.484 188.914C170.945 188.914 170.453 189.027 170.008 189.254C169.57 189.48 169.191 189.793 168.871 190.191C168.559 190.59 168.312 191.047 168.133 191.562C167.961 192.07 167.875 192.609 167.875 193.18ZM184.797 187.32V188.984H177.941V187.32H184.797ZM180.262 184.238H182.43V196.859C182.43 197.289 182.496 197.613 182.629 197.832C182.762 198.051 182.934 198.195 183.145 198.266C183.355 198.336 183.582 198.371 183.824 198.371C184.004 198.371 184.191 198.355 184.387 198.324C184.59 198.285 184.742 198.254 184.844 198.23L184.855 200C184.684 200.055 184.457 200.105 184.176 200.152C183.902 200.207 183.57 200.234 183.18 200.234C182.648 200.234 182.16 200.129 181.715 199.918C181.27 199.707 180.914 199.355 180.648 198.863C180.391 198.363 180.262 197.691 180.262 196.848V184.238Z" fill="white"/>
<path fill-rule="evenodd" clip-rule="evenodd" d="M230 34C235.523 34 240 29.5228 240 24C240 18.4772 235.523 14 230 14C224.477 14 220 18.4772 220 24C220 29.5228 224.477 34 230 34ZM230 36C236.627 36 242 30.6274 242 24C242 17.3726 236.627 12 230 12C223.373 12 218 17.3726 218 24C218 30.6274 223.373 36 230 36Z" fill="white"/>
<path fill-rule="evenodd" clip-rule="evenodd" d="M228.8 31.2002H231.2V21.6002H228.8V31.2002ZM228.8 19.2002H231.2V16.8002H228.8V19.2002Z" fill="white"/>
</g>
<defs>
<clipPath id="clip0_1_3706">
<rect width="254" height="254" rx="24" fill="white"/>
</clipPath>
</defs>
</svg>
