<svg width="150" height="65" viewBox="0 0 150 65" fill="none" xmlns="http://www.w3.org/2000/svg">
<path d="M27.6966 33.9371C27.1692 33.1145 26.5364 32.3551 25.7348 31.6801C24.9333 31.0472 24.0051 30.541 23.0348 30.2035C22.0434 29.866 20.9887 29.6761 19.8707 29.6761C17.8667 29.6761 16.1792 30.0558 14.787 30.8363C13.3948 31.6168 12.2346 32.6082 11.4119 33.9371C10.5471 35.2028 9.93534 36.7216 9.53455 38.3669C9.11266 40.0122 8.94391 41.742 8.94391 43.4928C8.94391 45.2225 9.13376 46.8256 9.53455 48.4288C9.95643 50.0109 10.5682 51.4453 11.4119 52.7531C12.2768 54.0187 13.4159 55.0524 14.787 55.8328C16.137 56.5922 17.8667 56.993 19.8707 56.993C22.5707 56.993 24.7012 56.1704 26.1989 54.525C27.6966 52.8797 28.6669 50.707 28.9833 47.9436H37.5476C37.3155 50.496 36.746 52.7742 35.7967 54.7781C34.8475 56.7821 33.6241 58.5329 32.0842 59.9673C30.5232 61.4017 28.7513 62.5197 26.6419 63.2369C24.5536 63.9963 22.2965 64.376 19.8074 64.376C16.7276 64.376 13.9221 63.8486 11.5174 62.7306C9.04939 61.6759 6.96106 60.1782 5.25244 58.3009C3.52272 56.4446 2.25707 54.1875 1.35002 51.6773C0.442976 49.1249 0 46.4038 0 43.4295C0 40.4341 0.442976 37.6286 1.35002 35.0551C2.25707 32.4816 3.54381 30.2246 5.25244 28.305C6.98216 26.3643 9.0072 24.8877 11.5174 23.7909C13.9854 22.6729 16.7698 22.1455 19.8074 22.1455C22.0645 22.1455 24.1317 22.483 26.1145 23.0947C28.0974 23.7065 29.8693 24.6557 31.4092 25.8792C32.9701 27.1026 34.2569 28.6003 35.2694 30.4355C36.303 32.2707 36.9147 34.2957 37.2101 36.6583H28.6669C28.5826 35.6879 28.245 34.7809 27.6966 33.9371Z" fill="white"/>
<path d="M62.523 23.1792L77.5843 63.5112H68.4083L65.3286 54.5251H50.2673L47.1032 63.5112H38.2226L53.4736 23.1792H62.523ZM63.0715 47.9015L57.9878 33.1145H57.8823L52.6088 47.9015H63.0715Z" fill="white"/>
<path d="M87.8782 53.5546C88.3844 54.5038 89.0173 55.2843 89.8189 55.8327C90.6204 56.4234 91.5908 56.8664 92.6666 57.0984C93.7424 57.3515 94.9236 57.5203 96.0416 57.5203C96.8432 57.5203 97.687 57.4359 98.594 57.3304C99.5011 57.225 100.345 56.9507 101.146 56.571C101.948 56.1913 102.581 55.7062 103.108 55.0101C103.636 54.3773 103.91 53.5335 103.91 52.521C103.91 51.403 103.572 50.5592 102.876 49.8631C102.159 49.167 101.231 48.6186 100.155 48.1334C99.0159 47.6904 97.7713 47.3107 96.3369 46.9732C94.9025 46.6357 93.447 46.256 91.9915 45.8341C90.4728 45.4544 88.9962 45.0115 87.5829 44.4208C86.1485 43.8302 84.8828 43.1763 83.7648 42.2903C82.6258 41.4255 81.7187 40.3496 81.0437 39.0629C80.3265 37.7973 80.0101 36.2152 80.0101 34.3378C80.0101 32.2495 80.432 30.4776 81.339 28.9588C82.2039 27.44 83.3851 26.1744 84.7773 25.1408C86.2118 24.1072 87.8571 23.3689 89.629 22.8837C91.4009 22.3774 93.2361 22.1665 95.0713 22.1665C97.1596 22.1665 99.2057 22.3985 101.146 22.8837C103.087 23.39 104.838 24.1283 106.314 25.1619C107.833 26.2166 109.015 27.5455 109.922 29.2119C110.786 30.8573 111.25 32.819 111.25 35.1816H102.644C102.56 33.9581 102.307 32.9878 101.885 32.1862C101.463 31.3846 100.851 30.7729 100.155 30.3299C99.4378 29.887 98.594 29.5705 97.687 29.3807C96.7799 29.1909 95.7463 29.1065 94.6916 29.1065C93.9744 29.1065 93.2572 29.1908 92.5189 29.3385C91.8017 29.4862 91.1689 29.7604 90.5782 30.1401C89.9876 30.5198 89.5235 30.9628 89.1438 31.5534C88.7641 32.144 88.5532 32.819 88.5532 33.7261C88.5532 34.5277 88.7009 35.1605 88.9962 35.6667C89.2915 36.173 89.861 36.616 90.7681 37.0168C91.6329 37.4387 92.8564 37.8394 94.4596 38.2613C96.0205 38.6832 98.0667 39.2106 100.556 39.8223C101.315 39.97 102.328 40.2442 103.72 40.6239C105.049 41.0458 106.378 41.6575 107.707 42.5013C109.036 43.3661 110.175 44.5052 111.124 45.9396C112.073 47.374 112.558 49.2514 112.558 51.5084C112.558 53.3647 112.221 55.0945 111.504 56.6343C110.786 58.1742 109.732 59.5453 108.318 60.7477C106.905 61.8868 105.154 62.7938 103.045 63.4477C100.957 64.0806 98.5307 64.397 95.8096 64.397C93.5525 64.397 91.4642 64.1227 89.3126 63.5954C87.2243 63.0048 85.368 62.1821 83.7648 61.0219C82.1828 59.8617 80.9171 58.364 79.9468 56.5921C78.9976 54.8202 78.5335 52.6475 78.5968 50.1795H87.161C87.1399 51.4663 87.3719 52.6053 87.8782 53.5546Z" fill="white"/>
<path d="M114.604 30.6043V23.1792H147.638V30.6465H135.551V63.4901H126.691V30.6043H114.604Z" fill="white"/>
<path d="M90.5264 6.44279V14H89.099V6.44279H90.5264ZM93.3084 9.58298V14H91.9382V8.384H93.2254L93.3084 9.58298ZM93.0905 10.9896H92.6856C92.6891 10.5813 92.7444 10.211 92.8517 9.87883C92.959 9.54664 93.1095 9.26117 93.3033 9.02241C93.5005 8.78366 93.7341 8.60026 94.004 8.47223C94.2739 8.3442 94.5749 8.28019 94.9071 8.28019C95.177 8.28019 95.4209 8.31825 95.6389 8.39438C95.8569 8.4705 96.0438 8.59161 96.1995 8.7577C96.3587 8.9238 96.4798 9.14179 96.5628 9.41169C96.6493 9.67813 96.6926 10.0069 96.6926 10.3979V14H95.3119V10.3875C95.3119 10.1314 95.2739 9.929 95.1978 9.78021C95.1251 9.63142 95.0178 9.52588 94.8759 9.4636C94.7375 9.40131 94.5663 9.37017 94.3621 9.37017C94.151 9.37017 93.9659 9.41342 93.8067 9.49993C93.651 9.58298 93.5195 9.6989 93.4123 9.84769C93.3084 9.99648 93.2289 10.1678 93.1735 10.3615C93.1181 10.5553 93.0905 10.7647 93.0905 10.9896ZM100.206 13.0242C100.4 13.0242 100.573 12.9861 100.726 12.91C100.878 12.8339 100.999 12.7266 101.089 12.5882C101.182 12.4498 101.232 12.2889 101.239 12.1055H102.532C102.525 12.4861 102.418 12.827 102.21 13.128C102.002 13.4291 101.726 13.6678 101.38 13.8443C101.037 14.0173 100.653 14.1038 100.227 14.1038C99.7947 14.1038 99.4175 14.0311 99.0957 13.8858C98.7739 13.7405 98.5058 13.5381 98.2912 13.2785C98.0801 13.019 97.921 12.718 97.8137 12.3754C97.7099 12.0328 97.658 11.6661 97.658 11.275V11.109C97.658 10.7179 97.7099 10.3512 97.8137 10.0086C97.921 9.66602 98.0801 9.36498 98.2912 9.10546C98.5058 8.84594 98.7739 8.64352 99.0957 8.49818C99.4175 8.35285 99.793 8.28019 100.222 8.28019C100.675 8.28019 101.073 8.36843 101.416 8.5449C101.762 8.72137 102.032 8.97051 102.226 9.29231C102.423 9.61412 102.525 9.99302 102.532 10.429H101.239C101.232 10.2283 101.187 10.0484 101.104 9.88921C101.021 9.73004 100.904 9.60201 100.751 9.50512C100.599 9.40823 100.414 9.35979 100.196 9.35979C99.9643 9.35979 99.7705 9.40823 99.6148 9.50512C99.4625 9.60201 99.3431 9.73523 99.2566 9.90478C99.1736 10.0709 99.1148 10.2577 99.0802 10.4653C99.049 10.6695 99.0335 10.884 99.0335 11.109V11.275C99.0335 11.5034 99.049 11.7214 99.0802 11.929C99.1148 12.1366 99.1736 12.3235 99.2566 12.4896C99.3431 12.6522 99.4625 12.782 99.6148 12.8789C99.7705 12.9758 99.9677 13.0242 100.206 13.0242ZM106.788 12.6661V8.384H108.169V14H106.871L106.788 12.6661ZM106.964 11.5034L107.39 11.493C107.39 11.8702 107.348 12.218 107.265 12.5363C107.182 12.8547 107.053 13.1315 106.876 13.3668C106.703 13.5986 106.483 13.7803 106.217 13.9118C105.951 14.0398 105.636 14.1038 105.272 14.1038C104.995 14.1038 104.743 14.0657 104.515 13.9896C104.286 13.91 104.089 13.7872 103.923 13.6211C103.76 13.4515 103.634 13.2353 103.544 12.9723C103.454 12.7059 103.409 12.3858 103.409 12.0121V8.384H104.779V12.0225C104.779 12.2093 104.8 12.365 104.841 12.4896C104.886 12.6142 104.947 12.7162 105.023 12.7958C105.103 12.872 105.194 12.9273 105.298 12.9619C105.406 12.9931 105.52 13.0086 105.641 13.0086C105.973 13.0086 106.234 12.9429 106.425 12.8114C106.618 12.6765 106.757 12.4965 106.84 12.2716C106.923 12.0432 106.964 11.7872 106.964 11.5034ZM109.378 6.02756H110.753V12.7595L110.618 14H109.378V6.02756ZM114.366 11.1349V11.2439C114.366 11.6626 114.319 12.0467 114.226 12.3962C114.136 12.7457 113.999 13.0484 113.816 13.3045C113.632 13.5571 113.404 13.7543 113.131 13.8962C112.861 14.0346 112.544 14.1038 112.181 14.1038C111.835 14.1038 111.534 14.0363 111.278 13.9014C111.025 13.7664 110.812 13.5761 110.639 13.3304C110.466 13.0813 110.328 12.7889 110.224 12.4533C110.12 12.1142 110.042 11.7439 109.99 11.3425V11.0467C110.042 10.6418 110.12 10.2716 110.224 9.93592C110.328 9.60028 110.466 9.30789 110.639 9.05875C110.812 8.80961 111.025 8.61756 111.278 8.48261C111.53 8.34766 111.828 8.28019 112.17 8.28019C112.537 8.28019 112.857 8.35112 113.131 8.49299C113.407 8.6314 113.636 8.82864 113.816 9.0847C113.999 9.3373 114.136 9.63834 114.226 9.98783C114.319 10.3339 114.366 10.7162 114.366 11.1349ZM112.99 11.2439V11.1349C112.99 10.8961 112.971 10.6712 112.933 10.4602C112.895 10.2456 112.833 10.057 112.746 9.8944C112.66 9.73177 112.542 9.60374 112.394 9.51031C112.245 9.41688 112.058 9.37017 111.833 9.37017C111.618 9.37017 111.435 9.4065 111.283 9.47917C111.134 9.55183 111.009 9.65218 110.909 9.78021C110.812 9.90824 110.736 10.0588 110.681 10.2318C110.629 10.4048 110.594 10.5916 110.577 10.7923V11.602C110.601 11.8685 110.658 12.109 110.748 12.3235C110.838 12.5346 110.971 12.7024 111.148 12.827C111.328 12.9515 111.56 13.0138 111.843 13.0138C112.065 13.0138 112.25 12.9706 112.399 12.8841C112.547 12.7941 112.665 12.6695 112.752 12.5104C112.838 12.3477 112.899 12.1591 112.933 11.9446C112.971 11.7301 112.99 11.4965 112.99 11.2439ZM118.456 12.8062V10.2162C118.456 10.0259 118.423 9.86153 118.357 9.72312C118.292 9.58471 118.191 9.47744 118.056 9.40131C117.921 9.32519 117.75 9.28712 117.542 9.28712C117.359 9.28712 117.198 9.31827 117.06 9.38055C116.925 9.44284 116.821 9.53107 116.748 9.64526C116.676 9.75599 116.639 9.88402 116.639 10.0294H115.264C115.264 9.79751 115.319 9.57779 115.43 9.37017C115.541 9.15909 115.698 8.97224 115.902 8.80961C116.11 8.64352 116.357 8.51376 116.644 8.42033C116.935 8.3269 117.26 8.28019 117.62 8.28019C118.046 8.28019 118.425 8.35285 118.757 8.49818C119.093 8.64006 119.356 8.85459 119.546 9.14179C119.74 9.429 119.837 9.79059 119.837 10.2266V12.6765C119.837 12.9567 119.854 13.1972 119.888 13.3979C119.927 13.5951 119.982 13.7664 120.055 13.9118V14H118.658C118.593 13.8581 118.542 13.6782 118.508 13.4602C118.473 13.2387 118.456 13.0207 118.456 12.8062ZM118.648 10.5795L118.658 11.3944H117.792C117.577 11.3944 117.388 11.4169 117.226 11.4619C117.063 11.5034 116.93 11.5657 116.826 11.6488C116.722 11.7283 116.644 11.8252 116.593 11.9394C116.541 12.0501 116.515 12.1764 116.515 12.3183C116.515 12.4567 116.546 12.5813 116.608 12.692C116.674 12.8027 116.767 12.891 116.888 12.9567C117.013 13.019 117.158 13.0502 117.324 13.0502C117.567 13.0502 117.778 13.0017 117.958 12.9048C118.138 12.8045 118.278 12.6834 118.378 12.5415C118.478 12.3996 118.532 12.2647 118.539 12.1366L118.933 12.7284C118.885 12.8702 118.812 13.0207 118.715 13.1799C118.619 13.3391 118.494 13.4879 118.342 13.6263C118.189 13.7647 118.006 13.8789 117.792 13.9689C117.577 14.0588 117.328 14.1038 117.044 14.1038C116.681 14.1038 116.356 14.0311 116.068 13.8858C115.781 13.7405 115.554 13.5415 115.388 13.2889C115.222 13.0363 115.139 12.7491 115.139 12.4273C115.139 12.1297 115.195 11.8667 115.305 11.6384C115.416 11.41 115.58 11.218 115.798 11.0622C116.016 10.9031 116.286 10.7837 116.608 10.7041C116.933 10.6211 117.305 10.5795 117.724 10.5795H118.648ZM123.729 8.384V9.37017H120.511V8.384H123.729ZM121.373 7.00335H122.748V12.3806C122.748 12.5467 122.771 12.6747 122.816 12.7647C122.861 12.8547 122.928 12.9152 123.018 12.9464C123.108 12.9775 123.215 12.9931 123.34 12.9931C123.43 12.9931 123.513 12.9879 123.589 12.9775C123.665 12.9671 123.729 12.9567 123.781 12.9464L123.786 13.974C123.672 14.0121 123.542 14.0433 123.397 14.0675C123.255 14.0917 123.094 14.1038 122.914 14.1038C122.606 14.1038 122.337 14.0519 122.105 13.9481C121.873 13.8408 121.693 13.6695 121.565 13.4342C121.437 13.1955 121.373 12.8806 121.373 12.4896V7.00335ZM127.165 14.1038C126.74 14.1038 126.357 14.0346 126.018 13.8962C125.679 13.7578 125.39 13.5657 125.151 13.3201C124.916 13.0709 124.735 12.782 124.607 12.4533C124.482 12.1211 124.42 11.7647 124.42 11.384V11.1764C124.42 10.7439 124.482 10.3512 124.607 9.99821C124.731 9.6418 124.908 9.33557 125.136 9.07951C125.364 8.82345 125.638 8.62621 125.956 8.4878C126.274 8.34939 126.626 8.28019 127.01 8.28019C127.408 8.28019 127.759 8.34766 128.063 8.48261C128.368 8.6141 128.622 8.80096 128.826 9.04318C129.03 9.28539 129.184 9.57606 129.288 9.91516C129.392 10.2508 129.444 10.6228 129.444 11.0311V11.6072H125.043V10.6626H128.094V10.5588C128.088 10.3408 128.046 10.1418 127.97 9.96188C127.894 9.77848 127.776 9.63315 127.617 9.52588C127.458 9.41515 127.252 9.35979 126.999 9.35979C126.795 9.35979 126.617 9.40477 126.465 9.49474C126.316 9.58125 126.191 9.70582 126.091 9.86845C125.994 10.0276 125.921 10.2179 125.873 10.4394C125.825 10.6608 125.8 10.9065 125.8 11.1764V11.384C125.8 11.6193 125.831 11.8373 125.894 12.038C125.959 12.2387 126.055 12.4135 126.179 12.5623C126.307 12.7076 126.459 12.8218 126.636 12.9048C126.816 12.9844 127.02 13.0242 127.248 13.0242C127.536 13.0242 127.795 12.9688 128.027 12.8581C128.262 12.7439 128.466 12.5761 128.639 12.3546L129.33 13.0709C129.212 13.2439 129.053 13.41 128.852 13.5692C128.655 13.7284 128.416 13.8581 128.136 13.9585C127.856 14.0554 127.532 14.1038 127.165 14.1038ZM133.731 12.8062V6.02756H135.112V14H133.866L133.731 12.8062ZM130.124 11.2595V11.1505C130.124 10.7214 130.172 10.3321 130.269 9.98264C130.37 9.62969 130.515 9.32692 130.705 9.07432C130.896 8.82172 131.126 8.62621 131.396 8.4878C131.669 8.34939 131.979 8.28019 132.325 8.28019C132.66 8.28019 132.953 8.34766 133.202 8.48261C133.454 8.61756 133.669 8.80961 133.845 9.05875C134.025 9.30789 134.169 9.60374 134.276 9.9463C134.383 10.2854 134.461 10.6591 134.51 11.0674V11.3633C134.461 11.7612 134.383 12.1263 134.276 12.4585C134.169 12.7906 134.025 13.0813 133.845 13.3304C133.669 13.5761 133.454 13.7664 133.202 13.9014C132.949 14.0363 132.653 14.1038 132.314 14.1038C131.972 14.1038 131.664 14.0329 131.39 13.891C131.12 13.7491 130.89 13.5502 130.7 13.2941C130.513 13.038 130.37 12.737 130.269 12.391C130.172 12.045 130.124 11.6678 130.124 11.2595ZM131.499 11.1505V11.2595C131.499 11.5017 131.52 11.7283 131.562 11.9394C131.603 12.1505 131.671 12.3373 131.764 12.5C131.857 12.6591 131.977 12.7837 132.122 12.8737C132.271 12.9637 132.451 13.0086 132.662 13.0086C132.932 13.0086 133.153 12.9498 133.326 12.8322C133.503 12.7111 133.64 12.5467 133.736 12.3391C133.833 12.128 133.896 11.891 133.923 11.628V10.8131C133.909 10.6055 133.873 10.4134 133.814 10.237C133.759 10.0605 133.679 9.90824 133.576 9.78021C133.475 9.65218 133.351 9.55183 133.202 9.47917C133.053 9.4065 132.877 9.37017 132.672 9.37017C132.461 9.37017 132.281 9.41688 132.133 9.51031C131.984 9.60028 131.863 9.72658 131.769 9.88921C131.676 10.0518 131.607 10.2404 131.562 10.455C131.52 10.6695 131.499 10.9013 131.499 11.1505ZM138.994 6.02756H140.37V12.7595L140.235 14H138.994V6.02756ZM143.982 11.1349V11.2439C143.982 11.6626 143.936 12.0467 143.842 12.3962C143.752 12.7457 143.615 13.0484 143.432 13.3045C143.249 13.5571 143.02 13.7543 142.747 13.8962C142.477 14.0346 142.16 14.1038 141.797 14.1038C141.451 14.1038 141.15 14.0363 140.894 13.9014C140.641 13.7664 140.429 13.5761 140.256 13.3304C140.083 13.0813 139.944 12.7889 139.84 12.4533C139.737 12.1142 139.659 11.7439 139.607 11.3425V11.0467C139.659 10.6418 139.737 10.2716 139.84 9.93592C139.944 9.60028 140.083 9.30789 140.256 9.05875C140.429 8.80961 140.641 8.61756 140.894 8.48261C141.147 8.34766 141.444 8.28019 141.787 8.28019C142.153 8.28019 142.474 8.35112 142.747 8.49299C143.024 8.6314 143.252 8.82864 143.432 9.0847C143.615 9.3373 143.752 9.63834 143.842 9.98783C143.936 10.3339 143.982 10.7162 143.982 11.1349ZM142.607 11.2439V11.1349C142.607 10.8961 142.588 10.6712 142.55 10.4602C142.512 10.2456 142.449 10.057 142.363 9.8944C142.276 9.73177 142.159 9.60374 142.01 9.51031C141.861 9.41688 141.674 9.37017 141.449 9.37017C141.235 9.37017 141.051 9.4065 140.899 9.47917C140.75 9.55183 140.626 9.65218 140.525 9.78021C140.429 9.90824 140.352 10.0588 140.297 10.2318C140.245 10.4048 140.211 10.5916 140.193 10.7923V11.602C140.217 11.8685 140.275 12.109 140.365 12.3235C140.455 12.5346 140.588 12.7024 140.764 12.827C140.944 12.9515 141.176 13.0138 141.46 13.0138C141.681 13.0138 141.866 12.9706 142.015 12.8841C142.164 12.7941 142.282 12.6695 142.368 12.5104C142.455 12.3477 142.515 12.1591 142.55 11.9446C142.588 11.7301 142.607 11.4965 142.607 11.2439ZM146.562 13.3772L148.067 8.384H149.536L147.283 14.8512C147.231 14.9896 147.164 15.1402 147.081 15.3028C147.001 15.4654 146.894 15.6194 146.759 15.7647C146.624 15.9135 146.455 16.0346 146.25 16.1281C146.05 16.2215 145.806 16.2682 145.519 16.2682C145.394 16.2682 145.283 16.2596 145.186 16.2422C145.09 16.2249 144.987 16.2025 144.88 16.1748V15.1471C144.915 15.1505 144.955 15.1523 145 15.1523C145.048 15.1557 145.09 15.1575 145.124 15.1575C145.325 15.1575 145.491 15.1332 145.622 15.0848C145.754 15.0398 145.859 14.9654 145.939 14.8616C146.022 14.7613 146.091 14.6298 146.147 14.4671L146.562 13.3772ZM145.82 8.384L147.091 12.5207L147.314 13.9689L146.37 14.1401L144.34 8.384H145.82Z" fill="white"/>
</svg>
