<svg width="18" height="18" viewBox="0 0 18 18" fill="none" xmlns="http://www.w3.org/2000/svg">
<path fill-rule="evenodd" clip-rule="evenodd" d="M14.2329 4.69974L13.3003 3.76712C12.7775 3.24429 11.9296 3.24429 11.4067 3.76712L10.4694 4.70448L13.2954 7.53053L14.2328 6.59317C14.7557 6.07046 14.7557 5.22268 14.2329 4.69974ZM4.74042 10.4619L3.49061 14.0542L3.38694 14.3525C3.33038 14.5157 3.4843 14.6696 3.64756 14.6131L3.94582 14.5094L7.53808 13.2596C7.56163 13.2517 7.5836 13.2392 7.60084 13.222L4.77805 10.3991C4.76081 10.4164 4.74819 10.4384 4.74042 10.4619ZM9.99844 5.17548L5.24748 9.92644L8.07352 12.7525L12.8245 8.00152L9.99844 5.17548Z" fill="#595959"/>
</svg>
