<svg width="24" height="13" viewBox="0 0 24 13" fill="none" xmlns="http://www.w3.org/2000/svg">
<path fill-rule="evenodd" clip-rule="evenodd" d="M12.0002 11.0958C9.27664 11.0958 7.0681 8.88754 7.0681 6.16368C7.0681 3.44062 9.27664 1.23235 12.0002 1.23235C14.723 1.23235 16.9316 3.44062 16.9316 6.16368C16.9316 8.88754 14.723 11.0958 12.0002 11.0958ZM12.0003 0C7.05357 0 2.68584 2.4356 0 6.16368C2.68584 9.89178 7.05357 12.3282 12.0003 12.3282C16.9462 12.3282 21.3139 9.89178 24 6.16368C21.3139 2.4356 16.9462 0 12.0003 0ZM12.0003 3.9508C10.7779 3.9508 9.78662 4.94208 9.78662 6.16366C9.78662 7.38523 10.7779 8.37678 12.0003 8.37678C13.2219 8.37678 14.2126 7.38523 14.2126 6.16366C14.2126 4.94208 13.2219 3.9508 12.0003 3.9508Z" fill="#121212"/>
</svg>
