<svg width="20" height="20" viewBox="0 0 20 20" fill="none" xmlns="http://www.w3.org/2000/svg">
<path d="M17.0462 2.9539H17.045L19.14 3.37265C19.2525 3.39515 19.345 3.47765 19.3775 3.5889C19.3939 3.64294 19.3954 3.70042 19.3817 3.75523C19.3681 3.81003 19.3398 3.86011 19.3 3.90015L17.5837 5.61765C17.3784 5.82261 17.1001 5.9377 16.81 5.93765H15.3875L11.8125 9.5139C11.8807 9.77143 11.8932 10.0405 11.8493 10.3033C11.8053 10.566 11.7059 10.8164 11.5576 11.0377C11.4093 11.259 11.2155 11.4462 10.9892 11.5867C10.7629 11.7273 10.5092 11.818 10.2451 11.8528C9.98099 11.8877 9.71248 11.8658 9.45747 11.7887C9.20246 11.7116 8.96681 11.5811 8.7662 11.4058C8.5656 11.2305 8.40465 11.0145 8.29409 10.7721C8.18353 10.5297 8.12588 10.2666 8.125 10.0001C8.12519 9.71251 8.19151 9.42877 8.31883 9.17085C8.44615 8.91293 8.63107 8.68773 8.8593 8.51267C9.08752 8.3376 9.35294 8.21735 9.63505 8.16121C9.91715 8.10507 10.2084 8.11455 10.4862 8.1889L14.0625 4.6114V3.19015C14.0625 2.90015 14.1775 2.6214 14.3825 2.4164L16.1 0.698899C16.14 0.65906 16.1901 0.630816 16.2449 0.617169C16.2997 0.603523 16.3572 0.604984 16.4112 0.621399C16.5225 0.653899 16.605 0.746399 16.6275 0.858899L17.0462 2.9539Z" fill="#121212"/>
<path d="M2.49999 9.99999C2.50128 11.0724 2.73255 12.1321 3.1782 13.1076C3.62386 14.0831 4.27353 14.9516 5.0834 15.6547C5.89327 16.3577 6.8445 16.8789 7.87291 17.1831C8.90133 17.4872 9.98302 17.5673 11.045 17.4179C12.107 17.2684 13.1246 16.893 14.0291 16.3168C14.9337 15.7407 15.7042 14.9772 16.2886 14.078C16.873 13.1788 17.2578 12.1647 17.4169 11.1041C17.5761 10.0435 17.506 8.96116 17.2112 7.92999C17.1699 7.80952 17.1534 7.68189 17.163 7.55487C17.1725 7.42785 17.2078 7.30409 17.2666 7.19114C17.3255 7.07818 17.4068 6.97839 17.5054 6.89784C17.6041 6.81729 17.7182 6.75766 17.8406 6.72259C17.9631 6.68752 18.0914 6.67773 18.2177 6.69383C18.3441 6.70993 18.4659 6.75158 18.5756 6.81624C18.6854 6.8809 18.7808 6.96721 18.8561 7.06994C18.9314 7.17266 18.9851 7.28963 19.0137 7.41374C19.5844 9.41065 19.476 11.5405 18.7056 13.4692C17.9351 15.3978 16.5462 17.0161 14.7568 18.0703C12.9673 19.1244 10.8785 19.5546 8.81818 19.2935C6.75781 19.0324 4.84242 18.0947 3.37249 16.6275C1.90417 15.1579 0.965461 13.2424 0.703747 11.1815C0.442033 9.12067 0.872133 7.03126 1.92652 5.24134C2.98091 3.45141 4.59987 2.06232 6.52924 1.29217C8.4586 0.522017 10.5891 0.414411 12.5862 0.986244C12.824 1.05576 13.0247 1.21658 13.1443 1.43356C13.2638 1.65054 13.2927 1.90604 13.2245 2.14421C13.1562 2.38239 12.9965 2.58388 12.7802 2.70466C12.5639 2.82543 12.3085 2.85566 12.07 2.78874C10.9532 2.46833 9.77728 2.4117 8.63489 2.62333C7.49249 2.83495 6.41487 3.30905 5.48698 4.00824C4.55909 4.70743 3.80629 5.6126 3.28794 6.65239C2.76959 7.69218 2.49985 8.83816 2.49999 9.99999Z" fill="#121212"/>
<path d="M6.24999 10.0002C6.25006 10.6834 6.43667 11.3537 6.78969 11.9386C7.14271 12.5236 7.64874 13.0011 8.2532 13.3196C8.85766 13.6381 9.53761 13.7855 10.2197 13.746C10.9018 13.7064 11.5601 13.4814 12.1237 13.0952C12.6872 12.708 13.1341 12.1741 13.4162 11.5512C13.6982 10.9284 13.8045 10.2403 13.7237 9.56142C13.7019 9.39667 13.7243 9.22907 13.7888 9.07589C13.8533 8.9227 13.9574 8.78947 14.0904 8.68989C14.2235 8.59032 14.3807 8.52801 14.5458 8.50939C14.711 8.49076 14.8781 8.51649 15.03 8.58392C15.1819 8.65047 15.3133 8.75611 15.4111 8.89006C15.5088 9.02401 15.5692 9.18148 15.5862 9.34642C15.7221 10.5065 15.4934 11.6802 14.9319 12.7044C14.3704 13.7287 13.504 14.5527 12.4529 15.0622C11.4018 15.5717 10.2182 15.7413 9.06636 15.5476C7.91449 15.3538 6.8515 14.8063 6.02494 13.981C5.19838 13.1557 4.64924 12.0935 4.45374 10.942C4.25824 9.79039 4.42608 8.60652 4.93397 7.55466C5.44185 6.50281 6.26459 5.63516 7.28798 5.07212C8.31137 4.50909 9.48466 4.27861 10.645 4.41266C10.7692 4.42419 10.8899 4.46041 11 4.51918C11.1101 4.57796 11.2073 4.65812 11.286 4.75496C11.3647 4.8518 11.4232 4.96337 11.4582 5.08314C11.4932 5.20291 11.504 5.32846 11.4898 5.45243C11.4757 5.5764 11.4369 5.6963 11.3759 5.80511C11.3148 5.91391 11.2326 6.00942 11.1341 6.08605C11.0356 6.16268 10.9228 6.21888 10.8024 6.25135C10.6819 6.28382 10.5561 6.29192 10.4325 6.27516C9.90706 6.21416 9.37467 6.265 8.87028 6.42435C8.3659 6.5837 7.90093 6.84796 7.50592 7.19976C7.11091 7.55156 6.7948 7.98295 6.57834 8.46559C6.36189 8.94823 6.24998 9.47121 6.24999 10.0002Z" fill="#121212"/>
</svg>
