<svg width="18" height="19" viewBox="0 0 18 19" fill="none" xmlns="http://www.w3.org/2000/svg">
<path d="M17.8302 9.36882C17.8302 8.63137 17.7704 8.09322 17.6409 7.53516H9.21988V10.8636H14.1628C14.0632 11.6908 13.525 12.9365 12.3291 13.7736L12.3124 13.885L14.9749 15.9477L15.1594 15.9661C16.8535 14.4015 17.8302 12.0994 17.8302 9.36882Z" fill="#4285F4"/>
<path d="M9.21988 18.1385C11.6415 18.1385 13.6745 17.3413 15.1594 15.966L12.3291 13.7736C11.5718 14.3017 10.5552 14.6705 9.21988 14.6705C6.84807 14.6705 4.83502 13.1059 4.11743 10.9434L4.01224 10.9523L1.24368 13.0949L1.20747 13.1956C2.68237 16.1254 5.71194 18.1385 9.21988 18.1385Z" fill="#34A853"/>
<path d="M4.11743 10.9433C3.92808 10.3852 3.8185 9.78724 3.8185 9.1694C3.8185 8.55149 3.92808 7.95357 4.10746 7.3955L4.10245 7.27665L1.29919 5.09961L1.20747 5.14324C0.599595 6.35906 0.250793 7.72438 0.250793 9.1694C0.250793 10.6144 0.599595 11.9797 1.20747 13.1955L4.11743 10.9433Z" fill="#FBBC05"/>
<path d="M9.21988 3.66822C10.904 3.66822 12.0401 4.39571 12.6879 5.00365L15.2192 2.53216C13.6646 1.08714 11.6415 0.200195 9.21988 0.200195C5.71194 0.200195 2.68237 2.21324 1.20747 5.14312L4.10747 7.39539C4.83502 5.23284 6.84807 3.66822 9.21988 3.66822Z" fill="#EB4335"/>
</svg>
