<svg width="16" height="18" viewBox="0 0 16 18" fill="none" xmlns="http://www.w3.org/2000/svg">
<path fill-rule="evenodd" clip-rule="evenodd" d="M2.16666 1.22244C2.01325 1.22244 1.88888 1.3468 1.88888 1.50022V16.5002C1.88888 16.6536 2.01325 16.778 2.16666 16.778H13.8333C13.9867 16.778 14.1111 16.6536 14.1111 16.5002V1.50022C14.1111 1.3468 13.9867 1.22244 13.8333 1.22244H2.16666ZM0.777771 1.50022C0.777771 0.733155 1.3996 0.111328 2.16666 0.111328H13.8333C14.6004 0.111328 15.2222 0.733155 15.2222 1.50022V16.5002C15.2222 17.2673 14.6004 17.8891 13.8333 17.8891H2.16666C1.3996 17.8891 0.777771 17.2673 0.777771 16.5002V1.50022Z" fill="#121212"/>
<path fill-rule="evenodd" clip-rule="evenodd" d="M4.66667 0.111328C4.35985 0.111328 4.11111 0.360059 4.11111 0.666884V7.33355C4.11111 7.55232 4.23951 7.75073 4.43908 7.84035C4.63866 7.92997 4.87225 7.89412 5.03576 7.74878L6.54167 6.41019L8.04758 7.74878C8.21109 7.89412 8.44468 7.92997 8.64426 7.84035C8.84383 7.75073 8.97223 7.55232 8.97223 7.33355V0.666884C8.97223 0.360059 8.7235 0.111328 8.41667 0.111328H4.66667Z" fill="#121212"/>
<path fill-rule="evenodd" clip-rule="evenodd" d="M4.11111 10.6669C4.11111 10.3601 4.35985 10.1113 4.66667 10.1113H8.83334C9.14016 10.1113 9.38889 10.3601 9.38889 10.6669C9.38889 10.9737 9.14016 11.2224 8.83334 11.2224H4.66667C4.35985 11.2224 4.11111 10.9737 4.11111 10.6669ZM4.11111 13.1669C4.11111 12.8601 4.35985 12.6113 4.66667 12.6113H11.3333C11.6402 12.6113 11.8889 12.8601 11.8889 13.1669C11.8889 13.4737 11.6402 13.7224 11.3333 13.7224H4.66667C4.35985 13.7224 4.11111 13.4737 4.11111 13.1669Z" fill="#121212"/>
</svg>
