<svg width="20" height="20" viewBox="0 0 20 20" fill="none" xmlns="http://www.w3.org/2000/svg">
<path fill-rule="evenodd" clip-rule="evenodd" d="M4.16668 7.96289C3.04165 7.96289 2.12964 8.8749 2.12964 9.99993C2.12964 11.125 3.04165 12.037 4.16668 12.037C5.2917 12.037 6.20371 11.125 6.20371 9.99993C6.20371 8.8749 5.2917 7.96289 4.16668 7.96289Z" fill="#121212"/>
<path fill-rule="evenodd" clip-rule="evenodd" d="M15.8333 2.12939C14.7083 2.12939 13.7963 3.04141 13.7963 4.16643C13.7963 5.29146 14.7083 6.20347 15.8333 6.20347C16.9584 6.20347 17.8704 5.29146 17.8704 4.16643C17.8704 3.04141 16.9584 2.12939 15.8333 2.12939Z" fill="#121212"/>
<path fill-rule="evenodd" clip-rule="evenodd" d="M15.8333 7.96289C14.7083 7.96289 13.7963 8.8749 13.7963 9.99993C13.7963 11.125 14.7083 12.037 15.8333 12.037C16.9584 12.037 17.8704 11.125 17.8704 9.99993C17.8704 8.8749 16.9584 7.96289 15.8333 7.96289Z" fill="#121212"/>
<path fill-rule="evenodd" clip-rule="evenodd" d="M15.8333 13.7959C14.7083 13.7959 13.7963 14.7079 13.7963 15.8329C13.7963 16.958 14.7083 17.87 15.8333 17.87C16.9584 17.87 17.8704 16.958 17.8704 15.8329C17.8704 14.7079 16.9584 13.7959 15.8333 13.7959Z" fill="#121212"/>
<path fill-rule="evenodd" clip-rule="evenodd" d="M8.61114 4.1664C8.61114 3.85957 8.85987 3.61084 9.16669 3.61084H14.1667C14.4735 3.61084 14.7222 3.85957 14.7222 4.1664C14.7222 4.47322 14.4735 4.72195 14.1667 4.72195H9.72225V9.44417H14.1667C14.4735 9.44417 14.7222 9.6929 14.7222 9.99973C14.7222 10.3066 14.4735 10.5553 14.1667 10.5553H9.72225V15.2775H14.1667C14.4735 15.2775 14.7222 15.5262 14.7222 15.8331C14.7222 16.1399 14.4735 16.3886 14.1667 16.3886H9.16669C8.85987 16.3886 8.61114 16.1399 8.61114 15.8331V10.5553H5.83336C5.52653 10.5553 5.2778 10.3066 5.2778 9.99973C5.2778 9.6929 5.52653 9.44417 5.83336 9.44417H8.61114V4.1664Z" fill="#121212"/>
</svg>
