<svg width="20" height="20" viewBox="0 0 20 20" fill="none" xmlns="http://www.w3.org/2000/svg">
<path d="M14.1667 9.99984V2.49984C14.1667 2.27882 14.0789 2.06686 13.9226 1.91058C13.7663 1.7543 13.5543 1.6665 13.3333 1.6665H2.49999C2.27898 1.6665 2.06701 1.7543 1.91073 1.91058C1.75445 2.06686 1.66666 2.27882 1.66666 2.49984V14.1665L4.99999 10.8332H13.3333C13.5543 10.8332 13.7663 10.7454 13.9226 10.5891C14.0789 10.4328 14.1667 10.2209 14.1667 9.99984ZM17.5 4.99984H15.8333V12.4998H4.99999V14.1665C4.99999 14.3875 5.08779 14.5995 5.24407 14.7558C5.40035 14.912 5.61231 14.9998 5.83332 14.9998H15L18.3333 18.3332V5.83317C18.3333 5.61216 18.2455 5.4002 18.0892 5.24392C17.933 5.08763 17.721 4.99984 17.5 4.99984Z" fill="#121212"/>
</svg>
