<svg width="20" height="20" viewBox="0 0 20 20" fill="none" xmlns="http://www.w3.org/2000/svg">
<path fill-rule="evenodd" clip-rule="evenodd" d="M19.303 2.3551L17.645 0.697095C16.7155 -0.232365 15.2081 -0.232365 14.2787 0.697095L12.6122 2.36351L17.6363 7.38761L19.3028 5.72119C20.2324 4.79193 20.2324 3.28476 19.303 2.3551ZM2.42741 12.599L0.205521 18.9852L0.0212313 19.5155C-0.0793267 19.8057 0.194303 20.0794 0.484559 19.9788L1.01479 19.7945L7.40103 17.5726C7.44289 17.5586 7.48195 17.5364 7.5126 17.5057L2.49432 12.4872C2.46367 12.5181 2.44123 12.5571 2.42741 12.599ZM11.775 3.20086L3.32886 11.647L8.35292 16.6711L16.7991 8.22492L11.775 3.20086Z" fill="#2DAEB7"/>
</svg>
