<svg width="20" height="20" viewBox="0 0 20 20" fill="none" xmlns="http://www.w3.org/2000/svg">
<path d="M10.8333 1.6665V3.33317C14.4917 3.78317 17.0833 7.10817 16.6333 10.7665C16.4494 12.2407 15.7792 13.6114 14.7287 14.6619C13.6782 15.7123 12.3075 16.3826 10.8333 16.5665V18.2332C15.4167 17.7332 18.7083 13.6165 18.2083 9.04151C17.775 5.15817 14.7167 2.08317 10.8333 1.6665ZM9.16668 1.6665C7.53334 1.8165 5.99168 2.45817 4.72501 3.49984L5.91668 4.78317C6.85001 4.03317 7.97501 3.54984 9.16668 3.38317V1.6665ZM3.55001 4.72484C2.50474 5.9873 1.86309 7.53481 1.70834 9.16651H3.37501C3.53334 7.98317 4.00001 6.85817 4.74168 5.9165L3.55001 4.72484ZM1.71668 10.8332C1.88334 12.4665 2.52501 14.0082 3.55834 15.2748L4.74168 14.0832C4.00578 13.1412 3.53664 12.0187 3.38334 10.8332H1.71668ZM5.88334 15.3082L4.72501 16.4498C5.98733 17.5021 7.53273 18.1574 9.16668 18.3332V16.6665C7.98118 16.5132 6.85868 16.0441 5.91668 15.3082H5.88334Z" fill="#121212"/>
<path fill-rule="evenodd" clip-rule="evenodd" d="M10.4375 9.56217V7.08301H9.56248V9.56217H7.08331V10.4372H9.56248V12.9163H10.4375V10.4372H12.9166V9.56217H10.4375Z" fill="#121212"/>
</svg>
