<svg width="15" height="20" viewBox="0 0 15 20" fill="none" xmlns="http://www.w3.org/2000/svg">
<path d="M13.5938 5.45455V19.0907C13.5938 19.5768 13.2138 19.9736 12.7356 19.9987L12.6875 20L1.8125 19.9998L1.76437 19.9987C1.30217 19.9745 0.931692 19.6028 0.907506 19.1392L0.90625 19.0909V5.45455H13.5938ZM2.71875 8.18182H1.8125V17.2727H2.71875V8.18182ZM6.34375 8.18182H4.53125V17.2727H6.34375V8.18182ZM9.96875 8.18182H8.15625V17.2727H9.96875V8.18182ZM12.6875 8.18182H11.7812V17.2727H12.6875V8.18182ZM0 4.54545V3.63636L0.00125623 3.58808C0.0262756 3.10845 0.421887 2.72727 0.90625 2.72727L3.625 2.72725V1.36364L3.62608 1.30879C3.65477 0.581102 4.25192 0 4.98438 0H9.51562C10.2664 0 10.875 0.610521 10.875 1.36364V2.72725L13.5938 2.72727C14.0781 2.72727 14.4737 3.10845 14.4987 3.58808L14.5 3.63636V4.54545H0ZM9.0625 1.81818H5.4375V2.72727H9.0625V1.81818Z" fill="#FD6120"/>
</svg>
