<svg width="12" height="12" viewBox="0 0 12 12" fill="none" xmlns="http://www.w3.org/2000/svg">
<path fill-rule="evenodd" clip-rule="evenodd" d="M0.375 5.71359C0.375 5.07609 0.9375 4.55859 1.5675 4.66359C3.10585 4.91177 4.52703 5.63792 5.62955 6.73909C6.73206 7.84025 7.45995 9.26055 7.71 10.7986C7.8075 11.4286 7.29 11.9911 6.6525 11.9911C6.12 11.9911 5.6925 11.5936 5.6025 11.0686C5.2125 8.87859 3.4875 7.14609 1.2975 6.76359C0.7725 6.67359 0.375 6.24609 0.375 5.71359ZM0.375 1.43859C0.375 0.816092 0.9225 0.313592 1.545 0.381092C7.0575 0.928592 11.4375 5.31609 11.985 10.8211C12.045 11.4436 11.55 11.9911 10.92 11.9911C10.3725 11.9911 9.9225 11.5786 9.87 11.0311C9.42 6.52359 5.835 2.93859 1.3275 2.48859C0.7875 2.43609 0.375 1.98609 0.375 1.43859ZM3.645 10.3561C3.645 11.2591 2.91299 11.9911 2.01 11.9911C1.10701 11.9911 0.375 11.2591 0.375 10.3561C0.375 9.4531 1.10701 8.72109 2.01 8.72109C2.91299 8.72109 3.645 9.4531 3.645 10.3561Z" fill="#595959"/>
</svg>
